<?xml version="1.0" encoding="UTF-8" standalone="no"?>
<svg
   width="130"
   height="150"
   clip-rule="evenodd"
   fill-rule="evenodd"
   stroke-linejoin="round"
   stroke-miterlimit="2"
   viewBox="0 0 130 150"
   version="1.1"
   id="svg1"
   sodipodi:docname="heureux_cyclage.svg"
   inkscape:version="1.3.2 (091e20ef0f, 2023-11-25)"
   xmlns:inkscape="http://www.inkscape.org/namespaces/inkscape"
   xmlns:sodipodi="http://sodipodi.sourceforge.net/DTD/sodipodi-0.dtd"
   xmlns="http://www.w3.org/2000/svg"
   xmlns:svg="http://www.w3.org/2000/svg">
  <defs
     id="defs1" />
  <sodipodi:namedview
     id="namedview1"
     pagecolor="#ffffff"
     bordercolor="#000000"
     borderopacity="0.25"
     inkscape:showpageshadow="2"
     inkscape:pageopacity="0.0"
     inkscape:pagecheckerboard="0"
     inkscape:deskcolor="#d1d1d1"
     inkscape:zoom="5.6533333"
     inkscape:cx="64.917453"
     inkscape:cy="75"
     inkscape:window-width="1864"
     inkscape:window-height="1052"
     inkscape:window-x="0"
     inkscape:window-y="0"
     inkscape:window-maximized="1"
     inkscape:current-layer="svg1" />
  <path
     d="m76.538 33.682c0.47815 0.78756 0.77724 1.7009 1.6884 2.0648-0.02904 0.5048-0.24124 0.80004-0.46687 1.0989-0.74387 0.98679-1.5389 1.9426-2.1968 2.9849-0.64042 1.0139-1.3639 1.9695-1.9616 2.9885-0.45127 0.06529-0.62194-0.26836-0.82644-0.47671-0.15842-0.46207 0.05857-0.84349 0.20331-1.2004 0.71891-1.778 1.1054-3.6471 1.4213-5.5172 0.19851-1.1779 0.44767-2.367 0.43687-3.577-0.0029-0.29212 0.08041-0.54464 0.27868-0.81756 0.59817 0.79044 0.94262 1.6599 1.4232 2.452m-2.0233-3.915c0.01705 1.4565-0.27724 2.8788-0.41454 4.3183-0.13706 1.4431-0.48415 2.849-0.7794 4.2616-0.29428 1.4083-0.9095 2.7275-1.3564 4.1109 0.64138 0.35934 1.0473 0.94742 1.7539 1.1287 0.50672-0.77148 0.99735-1.513 1.4825-2.2583 0.52136-0.80076 0.98823-1.644 1.571-2.3972 0.56745-0.73331 1.1361-1.4637 1.6519-2.2338 0.17187-0.25636 0.34469-0.5144 0.34613-0.89726-1.7696-1.693-2.5516-4.0667-3.9188-6.0739-0.09842 0.01224-0.18651 0.02304-0.33629 0.04104m-33.595 48.931c0.25108 0.68338 0.24388 0.71387-0.69851 3.0924h-1.2842c-0.24028-0.56097 0.0408-1.0638 0.16947-1.5379 0.12602-0.46471 0-1.012 0.4251-1.4304 0.44167-0.10994 0.93566 0.06529 1.3881-0.1241m20.834 16.949c0.90542 0.45127 1.9054-0.10538 2.7784 0.40014-0.09097 0.44887-0.19227 0.83173-0.17163 1.3192-0.80388 0.0072-1.5725 0.0168-2.3406 0.01992-0.74651 0.0038-1.4925 7.21e-4 -2.2283 7.21e-4 -0.17115-0.6529-0.21051-6.6176-0.05425-7.8852 0.62674-0.07369 1.2638-0.04033 1.9539-0.01104 0.12362 1.0617 0.04489 2.0823 0.05881 3.0994 0.0144 1.0221 0.0036 2.0444 0.0036 3.0569m-27.276-8.2712c-0.17187-0.70427-0.22996-6.1099-0.07729-7.9503h1.9085c0.26908 0.44479 0.27268 0.93302 0.27004 1.4294-0.0081 1.5278-0.0031 3.0559-0.0031 4.6085 0.75276 0.55184 1.6488 0.09962 2.5297 0.3879 0.16923 0.50648 0.09169 0.99063 0.06001 1.5245zm5.4498 8.1574c0.0929 0.59049 0.10418 1.1606 0.02376 1.7573-0.99303 0.21051-1.9328 0.36558-2.9421 0.12314-1.5658-0.37614-2.5862-1.4342-2.824-3.1454-0.1133-0.819-0.10634-1.6613 0.14714-2.4906 0.49232-1.6085 1.9805-2.5163 3.3082-2.4856 0.771 0.018 1.5514-0.07777 2.3125 0.33269 0.04561 0.4952 0.04873 1.011-0.036 1.5766-0.97407-0.10826-1.9172-0.47743-2.8308 0.03985-1.0977 1.5749-0.99975 3.1272 0.253 4.3118 0.85837 0.40614 1.6956 0.29044 2.5883-0.01968m12.164 0.90638c-0.5096-0.59481-0.82597-1.3024-0.96135-2.0679-0.2662-1.4997-0.0336-2.8905 1.042-4.0576 0.53072-0.57609 1.2239-0.88982 1.9587-0.98007 0.91526-0.1121 1.86-0.15002 2.8171 0.29572 0.12002 0.55376-0.16539 1.0072-0.11186 1.4546-0.22948 0.16298-0.3939 0.09193-0.57129 0.02376-0.51008-0.19731-1.0506-0.15722-1.5682-0.09121-0.55448 0.07081-0.95679 0.43015-1.1606 0.96087-0.34661 0.90302-0.35526 1.8173 0.0065 2.7167 0.31781 0.79116 1.3713 1.3142 2.2391 1.1203 0.32573-0.07249 0.63946-0.20019 0.94934-0.29957 0.35021 0.49544 0.36654 0.63562 0.20379 1.7136-1.7381 0.55352-3.3816 0.48175-4.8432-0.78924m-5.4659-7.0712h2.2561c-0.05473 0.61713-1.4189 3.6349-2.1906 4.8552v3.0854c-0.72947 0.13706-1.4306 0.05209-2.1913 0.06697-0.04153-1.0322-0.24892-2.0029-0.17211-2.9416-0.8106-1.6853-1.5694-3.3252-2.3972-5.0583h2.4899c0.52064 0.85069 0.54272 1.9897 1.187 3.0045 0.41934-1.0511 0.58593-2.0811 1.0182-3.0122m28.729-3.6238c0.08137 0.54824 0.05881 0.99951 0.01104 1.4964h-4.8895c-0.17355-0.59433-0.23068-6.3444-0.07465-7.7743 0.74987-0.12866 3.7388-0.14906 4.7738-0.02569 0.09457 0.44095 0.04321 0.89366 0.012 1.4765h-2.7261c-0.05473 0.51512-0.05905 0.96855-7.2e-4 1.4124 0.41382 0.33149 0.86485 0.16539 1.2835 0.19227 0.3987 0.02569 0.80052 0.0053 1.2364 0.0053 0.13562 0.51104 0.09289 0.96663 0.04321 1.4498-0.42054 0.17571-0.86005 0.06361-1.2864 0.08354-0.40158 0.0192-0.80484 0.0043-1.2592 0.0043-0.09986 0.55737-0.05905 1.0698-0.04104 1.6788 0.98943 7.2e-4 1.9407 7.2e-4 2.9176 7.2e-4m-24.696 1.6726c-0.31997 0.01992-0.61209-0.04248-0.91646-0.25468v-7.7503h4.7959c0.13058 0.47215 0.01272 0.92726 0.05617 1.4762h-2.7343c-0.12098 0.518-0.06073 0.94647-0.04897 1.4642 0.83365 0.11042 1.6675 7e-3 2.5437 0.06433 0.12098 0.5312 0.08018 1.0422 0.03384 1.645h-2.5576v1.6111c0.93374 0.18867 1.8982 0.0043 2.8917 0.11882v1.4275c-1.3408 0.38838-2.7134 0.1121-4.0641 0.19779m19.973 6.7333c-0.44863 0.04177-0.9011 0.06337-1.3814-0.04393 0.26956-0.97407 0.52808-1.9078 0.79932-2.8869 0.35622 0.6733 0.65866 2.2067 0.58209 2.9308m0.72179-4.657c-0.79596-0.04249-1.5989-0.06073-2.439 0.0096-0.42294 1.2912-0.83941 2.5809-1.2686 3.8665-0.43327 1.2986-0.92726 2.5792-1.2729 3.9719 0.7494 0.07177 1.3869 0.05688 2.024 0.0067 0.11714-0.61377 0.23236-1.1558 0.56121-1.613h2.1999c0.32405 0.52088 0.20667 1.1443 0.59961 1.6198 0.60441 0.05185 1.2227 0.0552 1.9251-0.0088 0.07465-0.34829-0.0264-0.59241-0.11378-0.86269-0.74891-2.3142-1.4731-4.6361-2.2155-6.9899m12.061-2.2182c0.70211-1.5014 1.5468-2.788 2.1373-4.2266-0.62506-1.1733-1.247-2.3401-1.9033-3.5717 0.77268-0.22323 1.5365-0.0444 2.2981-0.11642 0.3867 0.56505 0.55544 1.2419 1.019 1.7631 0.70259-0.46399 0.43855-1.4445 1.0907-1.8603h2.0638c0.21699 0.55857-0.1361 0.98055-0.39438 1.2852-0.53072 0.62674-0.82669 1.3644-1.223 2.0542-0.24196 0.42054-0.20235 0.77628 0.048 1.211 0.56985 0.99063 1.061 2.0266 1.5806 3.0461 0.04033 0.07945 0.05065 0.17427 0.0857 0.30101-0.54728 0.29692-1.1899-0.0821-1.6584 0.27364-0.25276-0.1025-0.47887-0.12146-0.63178-0.30701-0.34181-0.7494-0.68626-1.5048-1.073-2.3526-0.51896 0.78996-0.71939 1.6709-1.2837 2.4803-0.62434 0.32693-1.3353-0.10178-2.1558 0.02017m4.1841 3.7249v1.4805h2.5557c0.06937 0.56673 0.1013 1.0468-0.04201 1.6128-0.7914 0.1577-1.6022 0.01272-2.4395 0.10346-0.18843 0.45919-0.07969 0.94094-0.08305 1.4457 0.97959 0.19779 1.9525-0.05089 2.8977 0.1649 0.09313 0.56601 0.11162 1.0509 0.01776 1.5211-0.10874 0.07297-0.18579 0.1697-0.26308 0.17018-1.5329 0.0036-3.0657-0.0014-4.5986-0.0156-0.0749-9.83e-4 -0.1493-0.10202-0.2542-0.17859v-7.8336c0.63082-0.17259 3.5043-0.21867 4.9416-0.07153v1.5127c-0.41622 0.16803-0.88573 0.06697-1.3408 0.08402-0.43327 0.01608-0.86725 0.0038-1.3915 0.0038m-11.078-6.1593c-0.03696-1.7775-0.01224-3.5559-0.01224-5.3732 0.6517-0.21675 1.3024-0.0336 1.9064-0.10538 0.25132 0.23812 0.16346 0.50336 0.16514 0.74051 0.0108 1.342 0.0074 2.6843 0.0091 4.0266 2.4e-4 0.18723-0.0038 0.3747 4.8e-4 0.56169 0.0264 1.1015 0.53288 1.4316 1.5396 1.0209 0.33317-0.38934 0.32741-0.76356 0.32693-1.1411-0.0019-1.4357-0.0017-2.8713 7e-3 -4.3075 0.0017-0.27388-0.06145-0.55784 0.07945-0.85309h1.9976v1.2393c0 1.3423 0.01464 2.6846-0.0043 4.0266-0.01248 0.83653-0.28324 1.5686-0.94406 2.1421-0.32069 0.27868-0.6829 0.43375-1.0737 0.51632-1.1618 0.24628-2.2719 0.21819-3.2148-0.6625-0.53816-0.5024-0.76812-1.144-0.78252-1.8312m-20.782-4.1509c-0.02401-0.43951 0.05257-0.85621 0.24484-1.2907h1.8504c0.20451 0.20955 0.11714 0.47311 0.11858 0.71195 0.0088 1.5619-7e-3 3.1243 0.01224 4.6862 0.01032 0.87685 0.2662 1.0814 1.2506 1.0816 0.52496-0.37878 0.60873-0.94934 0.60921-1.555 4.8e-4 -1.4059 0.0012-2.8118 0.0043-4.2179 4.79e-4 -0.21483-0.04225-0.43471 0.08401-0.69347h1.8879c0.17571 0.19803 0.10442 0.42462 0.10466 0.63562 0.0014 1.4997-0.0084 2.9995-7.2e-4 4.499 0.0031 0.54008-0.12194 1.0355-0.35381 1.5216-0.21075 0.44167-0.52592 0.79644-0.94718 0.99111-1.2163 0.56265-2.4297 0.63154-3.6404-0.08881-0.6541-0.38958-0.95847-0.97743-1.0446-1.6647-0.05953-0.47407-0.33605-0.95823-0.06337-1.4517-0.24316-1.0475-0.05929-2.1106-0.11666-3.1649m20.04 13.281c-0.07634-0.96999-0.0019-1.9097 0.51224-2.7952 0.15818-0.27196 0.29933-0.5468 0.53456-0.73523 0.86173-0.69154 1.801-1.1923 2.9589-1.1517 0.74267 0.02617 1.4947-0.06216 2.2069 0.22852 0.10874 0.04393 0.19803 0.1349 0.33269 0.22971-0.14114 0.45031-0.19083 0.9035-0.17811 1.4493-1.3008-0.41982-2.5348-0.6901-3.6927 0.47767-0.52928 0.71915-0.46879 1.6831-0.40446 2.7083 0.13826 0.28108 0.30149 0.61305 0.46495 0.94622 0.26524 0.17547 0.52184 0.34565 0.79692 0.52736h1.0482c0.21771-0.50888 0.04824-1.0295 0.1073-1.5936-0.38814-0.03625-0.71699-0.06745-1.0785-0.10154v-1.4289c1.0012-0.04968 2.0127-0.03673 3.113-4.8e-4v4.3535c-1.5538 0.59529-3.1327 0.74603-4.656-8e-3 -1.2436-0.61545-1.9549-1.6959-2.066-3.1061m-4.6279 18.599c0.50456 2.107-0.53192 3.9023-2.7479 4.6867-0.57897 0.20522-1.1788 0.38021-1.8027 0.38141-0.35381 7.2e-4 -0.65578 0.17931-1.0581 0.23692 0.37662 0.23835 0.7746 0.37685 1.0341 0.80484 0.07009 0.16851 0.01897 0.41743 0.0081 0.65866-0.0857 0.21987-0.26164 0.34949-0.43351 0.48511-0.17811 0.091-0.40998 0.11306-0.54152 0.0216-0.59001-0.41095-1.2684-0.65867-1.868-1.042-0.58089-0.37086-1.0118-0.8891-1.2588-1.4945 0.0336-0.82093 0.29501-1.5389 0.8106-2.0727 0.61425-0.63489 0.92582-1.5598 1.8159-1.9508 0.34541 0.0814 0.66754 0.17187 0.94094 0.55569-0.01152 0.2206-0.0228 0.43663-0.03457 0.66418-0.34253 0.39126-0.67522 0.79093-0.8855 1.2638 0.03265 0.0387 0.05233 0.0809 0.06985 0.0801 1.1671-0.0555 2.3245-0.1229 3.3528-0.79764 0.65506-0.42967 0.86077-1.0766 0.78204-1.7535-0.11306-0.97503-0.3759-1.926-0.79596-2.8363-0.25108-0.54369-0.52016-1.1611 0.0077-1.7784 0.24892-0.0734 0.51416-0.24724 0.86437-0.24436 0.41766 0.21843 0.68002 0.54728 0.81636 1.0367 0.28852 1.0365 0.67066 2.0391 0.92366 3.0943m-5.6696-31.618c0.51224-0.13274 0.9407-0.1109 1.271 0.3867 0.06697 0.30557 0.07993 0.64018-0.03336 1.0245-0.3723 0.16682-0.70235 0.61881-1.2379 0.15866 2.41e-4 -0.55616 2.41e-4 -1.0478 2.41e-4 -1.5698m-1.9186 6.4061c0.63178 0.1061 1.2383 0.05569 1.9078 0.04033 0-0.57657-0.0034-1.0727 9.83e-4 -1.5684 0.0041-0.52112-0.04537-1.0463 0.05881-1.5694 0.63514 0.1517 0.70499 0.19323 0.86581 0.62002 0.08689 0.22995 0.13466 0.47455 0.20283 0.71123 0.1697 0.58521 0.34109 1.1697 0.51344 1.7604 0.69467 0.12914 1.3418 0.04608 2.2443 0.04777-0.51752-1.4539-0.5252-2.9246-1.5638-4.0367 0.53312-0.27004 0.88454-0.70091 1.2273-1.1498v-1.4565c-0.27533-0.97527-1.0403-1.296-1.8557-1.3521-1.2374-0.08546-2.4849-0.02233-3.6349-0.02233-0.30389 0.20931-0.28948 0.42966-0.28948 0.65098 0.0017 2.029 0.0017 4.0583-0.0014 6.0878-4.81e-4 0.43879 0.10154 0.84421 0.32405 1.2367m-21.3-0.057849v-7.8653c0.68746-0.13706 1.3908-0.04777 2.1707-0.04897v2.9344c0.52544 0.11354 0.98079 0.06145 1.4901 0.03936 0.17043-0.97863-0.04921-1.9652 0.20859-2.9587h2.0545v8.0067c-0.70811-0.012-1.3773 0.0857-2.1186-0.07729-0.18075-1.0533 0.01296-2.1145-0.11738-3.1944-0.46903-0.1193-0.92558-0.04225-1.4705-0.04369-0.01537 1.0773-0.03 2.1226-0.04561 3.2078-0.75708 0.17187-1.4429 0.18963-2.1719 0m19.432 29.284c0.07345 0.31492 0.05977 0.62289-0.0021 0.9311-0.10754 0.20067-0.28084 0.32981-0.49208 0.46567-0.47215 0-0.97767 0.0564-1.4661-0.0111-1.4225-0.19611-2.7729-0.65194-3.9217-1.5218-1.0979-0.83125-1.8843-2.6982-1.4808-3.8437 0.33653-0.95511 0.66058-1.903 1.1776-2.8912-1.4606 0.34445-1.8411 0.0797-1.79-1.1769 0.82284-0.50456 1.6637-1.0204 2.5197-1.5451 0.31277-0.0754 0.66778-0.0235 0.89822-0.15626 1.4088 0.0739 1.8348 1.1267 2.2681 2.119 0.14642 0.33484 0.26812 0.6925 0.43303 1.0216 0.23812 0.47599 0.25084 0.94262 0.11834 1.366-0.15554 0.18651-0.28636 0.2482-0.45055 0.27412-0.14906 0.0235-0.29068 0.0936-0.4251 0.1397-0.72803-0.30244-0.83173-1.0521-1.241-1.6687-0.84781 1.0691-1.6503 2.1123-1.5847 3.5278 0.46975 1.5302 1.7184 1.9873 3.0449 2.2943 0.59817 0.13849 1.2273 0.14377 1.8699 0.21291 0.21483 0.0845 0.3903 0.2518 0.52448 0.46255m1.2146-13.952c-0.7902 0.65314-1.4433 1.4352-2.0535 2.2537-0.29596 0.3963-0.58017 0.80148-0.85861 1.1867-0.31493 0.16995-0.62674 0.11618-0.93878 0.0943-0.28852-0.14714-0.46663-0.4047-0.67546-0.67618v-0.66371c0.78972-1.138 1.6013-2.3 2.5907-3.3262 0.47839-0.49616 1.0192-0.89846 1.6445-1.1896 1.0223-0.476 1.9784-0.32814 2.8936 0.28516 0.29621 0.19899 0.4988 0.47119 0.63898 0.78636 0.2758 0.62145 0.54848 1.2458 0.7902 1.8814 0.08233 0.21603 0.16106 0.3939 0.46951 0.50215 0.51464-1.2513 0.89318-1.3908 1.8994-0.71531 0.12218 0.26068 0.09217 0.52784 0.01392 0.80557-0.17571 0.62289-0.30917 1.2595-0.51176 1.8728-0.22635 0.68651-0.51464 1.3502-1.3406 1.5547-0.97023 0.1301-1.8831-0.0545-2.7304-0.60369-0.46471-0.30077-1.0715-0.29765-1.4947-0.6193-0.24964-0.23715-0.1613-0.56648-0.34349-0.79956 0.11954-0.26188 0.31229-0.45775 0.55784-0.6685 0.25756-0.0711 0.55328-0.15266 0.87325-0.24076 0.19251 0.3759 0.58305 0.36942 0.85549 0.52928 0.19803-0.10729 0.32573-0.24051 0.25372-0.39822-0.35886-0.78804-0.70211-1.59-1.32-2.1874-0.52376-0.21387-0.87781 0.0581-1.2139 0.33629m39.259-50.822c-0.16371 1.4885-0.61234 2.9198-1.5245 4.2126-1.1366 1.6099-2.524 2.8706-4.2054 3.8639-1.3144 0.77676-2.7268 1.2655-4.1642 1.7571-1.1843 0.40542-2.3591 0.60777-3.5578 0.47383-2.3123-0.25876-4.4824-0.94598-6.1713-2.6692-0.58497-0.59673-1.1142-1.2504-1.645-1.8977-0.13562-0.16562-0.20883-0.38862-0.42654-0.47119-0.16947-0.06457-0.23836-0.21699-0.29068-0.34781-0.61377-1.5396-1.4376-3.0031-1.7319-4.6586-0.06409-0.36006-0.04345-0.73523-0.01128-1.1109 0.2518 0.57201 0.4059 1.1675 0.60201 1.7482 0.45607 1.3483 1.0907 2.6246 1.9321 3.7777 0.5288 0.72539 1.072 1.4599 1.7155 2.0785 1.0811 1.0391 2.356 1.8101 3.8079 2.2362 2.5737 0.75516 5.0873 0.5168 7.5119-0.58401 2.3622-1.0727 4.1224-2.8389 5.5444-4.9721 0.88838-1.3329 1.3454-2.8324 1.7081-4.3711 0.28204-1.1992 0.2854-2.427 0.15603-3.625-0.21796-2.0168-0.84709-3.9174-2.1205-5.5496-1.7218-2.2074-3.9229-3.7479-6.5496-4.6932-0.72443-0.26044-1.4287-0.59457-2.2263-0.58257-0.07753 9.83e-4 -0.15578-0.09313-0.26476-0.1625-0.09145-0.42774-0.08354-0.89438-0.28756-1.3094 0.59601-0.22203 1.8248-0.24388 2.4921-0.11714 2.8929 0.55088 4.9421 2.2871 6.5885 4.6178 1.5259 2.1606 2.4164 4.5845 2.946 7.1466 0.35454 1.7179 0.36294 3.4841 0.17283 5.2098m-22.981 5.0758c-0.28972 0.03793-0.4179-0.06193-0.50768-0.18771-0.58329-0.81492-0.9023-1.7518-1.2124-2.6901-0.18747-0.56577-0.21483-1.1519-0.21243-1.7448 6e-3 -1.6555 0.04921-3.3135-0.02016-4.9661-0.11378-2.7223 0.93398-5.0031 2.553-7.0801 0.20139-0.25828 0.29212-0.63514 0.65578-0.7578 0.37542 0.30053 0.37542 0.30053 0.63634 0.92342-0.65962 0.73835-1.071 1.6791-1.5581 2.573-0.71075 1.3046-1.1678 2.711-1.4841 4.162-0.31613 1.4472-0.27748 2.9184-0.16034 4.3703 0.10946 1.3562 0.59481 2.6416 1.1829 3.8747 0.15914 0.33437 0.32093 0.66754 0.47623 0.99063-0.08881 0.34997-0.21483 0.50936-0.34901 0.53264m4.2775-5.0597c1.3368-0.02233 2.6625 0.05833 4.1344 0.2722-1.2232 0.52448-2.3459 1.0398-3.427 1.6373-1.0761 0.59481-2.175 1.1279-3.3173 1.5058-0.73403-0.75324-1.5012-2.643-1.4587-3.5177 1.3526 0.15578 2.7127 0.1253 4.0686 0.1025m-4.0725-4.7943c1.1193 0.58977 2.2323 1.1894 3.3295 1.8212 1.4733 0.84829 3.0134 1.5629 4.6498 2.0593 0.3927 0.1193 0.82428 0.20043 1.2376 0.56313-0.39894 0.21483-0.69682 0.18411-0.95678 0.1337-1.4227-0.277-2.8588-0.17355-4.2866-0.15266-1.1563 0.01681-2.2899-0.21651-3.4433-0.19803-0.29453 0.0046-0.59145-0.1421-0.88646-0.21915-0.28444-1.3653-0.35573-2.7129-0.21747-4.0415 0.24196-0.13682 0.4023-0.05641 0.57369 0.03408m0.50576-3.5588c0.38094-0.99903 0.90158-1.8821 1.5593-2.722 0.99807 1.3987 1.7676 2.8454 2.6306 4.2335 0.6673 1.073 1.434 2.0835 2.1613 3.1188 0.10394 0.14786 0.27772 0.26212 0.12602 0.53744-0.70379-0.16298-1.1234-0.77796-1.6899-1.1469-0.56073-0.36534-1.0062-0.9023-1.5386-1.3164-0.56481-0.43927-1.0586-0.96735-1.6327-1.3778-0.56169-0.40206-0.97647-0.95799-1.6159-1.3267m2.4371 2.7482c0.88406 0.77124 1.8363 1.4642 2.7247 2.2314 0.87805 0.75828 1.9652 1.2115 2.8346 1.987-3.2566-0.84781-6.01-2.7134-8.9368-4.2688 0.09241-0.81444 0.4227-1.4976 0.67426-2.2854 1.0257 0.71171 1.825 1.5696 2.7033 2.3358m6.8963 14.345c-0.9299 0.22083-1.7984-0.08186-2.6786-0.36342-0.07945-0.30581 0.15722-0.5072 0.28012-0.73043 0.90446-1.6486 1.5955-3.3917 2.3084-5.1255 0.05833-0.1409 0.14738-0.26908 0.26956-0.48799 0.10082 2.2813 0.01056 4.4685-0.17955 6.7073m-3.2196-0.87205c-0.41142 0.08521-0.71795-0.04537-1.0708-0.22227-1.3723-0.68698-2.3394-1.8257-3.374-2.8922-0.12602-0.12986-0.19899-0.31085-0.29645-0.46783-0.06841-0.10994-0.09914-0.22611-0.04897-0.38838 2.4978-0.96927 4.771-2.4621 7.2813-3.4606 0.27268-0.10826 0.53384-0.33917 1.0329-0.10706-1.1913 2.5417-2.0293 5.1949-3.524 7.5384m-6.4697-22.826c-0.18723-0.0953-0.36774-0.01296-0.51104 0.18747-1.1347 1.59-2.3053 3.1555-3.3893 4.7789-0.73499 1.0998-1.3437 2.2839-2.018 3.4244-0.21915 0.37086-0.46879 0.72347-0.71027 1.0938-0.38406-0.2638-0.40518-0.56937-0.23236-0.91622 0.15074-0.30293 0.30701-0.60393 0.47839-0.93998-0.48055-0.548-1.0485-0.94935-1.6246-1.2604-0.25996 0.04417-0.27748 0.2302-0.35573 0.35141-1.0358 1.6061-2.464 2.7578-4.1474 3.6234-0.90998 0.46759-1.8096 0.95391-2.7115 1.4366-1.3401 0.71627-2.7208 1.33-4.2021 1.6963-0.08546 0.02065-0.16514 0.06601-0.31877 0.12986 0.34301 0.85621 1.115 1.392 1.5739 2.1896-0.43303 0.11306-0.77772 0.34997-1.2021 0.26884-1.1347-1.6551-2.2376-3.3329-3.4116-4.9601-1.3423-1.86-2.7448-3.6774-4.127-5.5084-0.59865-0.79356-1.0593-1.6711-1.5581-2.5245-0.46831-0.80196-0.93614-1.6018-1.4455-2.3797-0.43519-0.66442-1.0322-1.1601-1.5749-1.7146-0.11546-0.1181-0.26428-0.16058-0.49208-0.08546-0.2674 0.86461-0.58905 1.7599-0.81636 2.6783-0.24484 0.98919-0.56937 1.9508-0.88742 2.9143-0.68602 2.0775-1.2885 4.1812-1.7206 6.3211-0.32933 1.6291-0.59073 3.277-0.82693 4.928-0.20787 1.4484-0.38838 2.8857-0.35645 4.3478 0.0041 0.18459 0.01848 0.36846 0.03121 0.60633 1.338 0.08761 2.6207 0.47359 3.9884 0.42198 0.1145 0.29764 0.22203 0.57729 0.33629 0.87373-0.12218 0.04129-0.20763 0.09553-0.29284 0.09602-1.7477 5e-3 -3.4957 0.0036-5.1795 0.0036-0.28588-0.10466-0.38142-0.31277-0.50192-0.43159-0.23548-0.83245-0.04393-1.609 0.16562-2.3394 0.47095-1.6411 0.6217-3.3315 0.92126-4.9983 0.20715-1.1507 0.45151-2.2969 0.73643-3.4304 0.40494-1.6094 0.85429-3.2081 1.3005-4.807 0.32405-1.162 0.82093-2.2614 1.2624-3.3809 0.44167-1.121 0.85837-2.2535 0.80844-3.494-0.02376-0.59793-0.28732-1.6147-0.60417-2.0989 0.57009-0.56769 1.1179-1.0257 1.897-0.84541 0.29236 0.29572-0.09289 0.52616 0.05545 0.75756 0.03576 0.05041 0.06073 0.12482 0.10946 0.1469 0.79596 0.35934 1.3056 0.98271 1.7823 1.7031 0.53288 0.80484 0.95487 1.6656 1.4493 2.488 1.2278 2.0422 2.5929 3.9947 3.9342 5.9611 1.1152 1.6349 2.3005 3.2215 3.4623 4.824 0.40662 0.5612 0.71771 0.69106 1.3454 0.47527 0.5528-0.18963 1.1179-0.34373 1.6452-0.6217 1.8896-0.99639 3.7799-1.994 5.7006-2.928 2.0917-1.0178 3.3209-2.7458 4.1262-4.831 0.70139-1.8164 1.1848-3.7064 1.4702-5.6253 0.16298-1.0974 0.3591-2.1951 0.46807-3.306 0.1073-1.0974 0.18867-2.216 0.51104-3.2806 0.37998-0.2458 0.76452-0.42943 1.1311-0.55688 0.47239 0.2758 0.57057 0.74267 0.77124 1.1058 1.2648 2.2871 2.878 4.331 4.4263 6.4171 0.79332 1.0686 1.6839 2.0658 2.4184 3.1807 0.78324 1.1891 1.5744 2.3737 2.3329 3.5787 1.0398 1.6517 1.9808 3.3644 3.0998 4.9673 0.247 0.35333 0.41766 0.75972 0.64306 1.1779 1.1731 0.747 2.4167 1.4625 3.3312 2.5924 0.06505 0.08041 0.04033 0.23308 0.06337 0.39606-0.68026 0.14738-1.2924 0.1265-1.9001-0.21723-0.90542-0.51197-1.6455-1.1742-2.2789-2.0105-0.93542-1.2343-1.8392-2.4909-2.7287-3.7568-0.51464-0.73211-0.93878-1.5274-1.4102-2.2909-0.71459-1.1589-1.4222-2.3228-2.1572-3.4688-0.66802-1.0418-1.3689-2.0626-2.0835-3.1349m-5.7669 11.513c0.5168-0.72227 0.94982-1.4937 1.3094-2.5007 0.36726 1.3497-0.08857 2.3442-0.56673 3.2671-0.17451 0.82405 0.12122 1.5322 0.23548 2.2611 0.20619 1.3089 0.54656 2.5926 0.67954 3.9176 0.12938 1.288 0.4143 2.5638 0.4964 3.8535 0.0588 0.92966 0.16754 1.8548 0.25372 2.7791 0.1421 1.5214 0.06289 3.0518 0.21315 4.5645 0.22828 2.3039 0.10586 4.6053 0.12314 6.908 2.4e-4 0.0228-0.0372 0.04561-0.07273 0.08617-2.1126 0.22684-4.2474 0.27292-6.3571 0.21891-0.21123-0.21315-0.14474-0.44119-0.13466-0.64954 0.15482-3.1435 0.10922-6.293 0.23596-9.4356 0.07945-1.9659 0.18411-3.9486 0.6661-5.8874 0.22299-0.8963 0.27076-1.8358 0.25108-2.7758-0.0228-1.077-0.39678-1.921-1.3315-2.4889-0.10562-0.06457-0.20547-0.13802-0.34445-0.23212 0.01008-0.30989 0.19731-0.54296 0.40518-0.78396 0.4023 0.16082 0.7674 0.44911 1.2069 0.2974 0.2626-0.06481 0.1613-0.33509 0.35573-0.49856 0.1481-0.11498 0.45727 0.03937 0.63802-0.19443 0.25684-0.31157 0.1193-0.71459 0.20619-1.0578 0.24556-0.16539 0.51008-0.03168 0.75108-0.1181 0.48439-0.35285 0.24004-0.91142 0.33965-1.3317 0.12146-0.20115 0.31469-0.11114 0.44047-0.19899m6.8113 26.067c0.93038-0.07129 1.8728-0.02593 2.7854-0.16874 1.1044-0.17283 2.2323-0.01368 3.3211-0.31085 0.17523-0.048 0.37374-0.02712 0.56025-0.01729 1.1239 0.06121 2.2383-0.1265 3.3435-0.24196 1.5648-0.16322 3.1486-0.17547 4.6975-0.49448 0.14306-0.02929 0.31037-0.04729 0.46663 0.06769-0.16226 1.3317-0.30053 2.6754-0.49592 4.0108-0.20931 1.4313-0.52832 2.8483-0.69202 4.2842-0.10562 0.92342-0.30509 1.8267-0.42294 2.7458-0.11306 0.8867-0.28924 1.7657-0.43615 2.6483-0.16754 1.0031-0.33341 2.0067-0.49976 3.0098-0.14618 0.88214-0.2434 1.7763-0.45559 2.6421-0.13298 0.54416-0.18459 1.1058-0.24796 1.643-0.13466 1.1385-0.60441 2.2273-0.44095 3.386-0.13634 0.02257-0.21243 0.03528-0.30293 0.05065-0.0027 1.24-0.10946 2.4705-0.40374 3.6838-0.07969 0.32741-0.03457 0.68435-0.05089 1.0276-0.01032 0.21747 0.0324 0.46375-0.05425 0.64666-0.33605 0.70739-0.27868 1.4589-0.29932 2.2009-0.0264 0.93159-0.04104 1.8598-0.30989 2.7662-0.06865 0.23163-0.03048 0.4964-0.03337 0.74603-0.01968 1.6241-0.01272 3.2491-0.06145 4.8723-0.05041 1.679-0.08546 3.3627-0.19443 5.0348-0.1301 1.994-0.08809 3.9853-0.16562 5.9762-0.0046 0.12073-0.02112 0.24099-0.04009 0.4515-1.2818-0.0598-2.5343 0.0384-3.8082-0.10681-1.3793-0.15795-2.7278-0.5821-4.1471-0.46496-0.8939 0.0742-1.7808-0.12841-2.6666-0.2866-0.57801-0.10369-1.1836-0.0636-1.7768-0.066-0.59361-3e-3 -1.1827-0.0441-1.7463-0.22875-0.48847-0.16011-0.98727-0.11618-1.481-0.1265-0.80796-0.0173-1.609-0.0497-2.3898-0.28949-0.17307-0.0531-0.36678-0.049-0.55136-0.0531-3.1541-0.0754-6.3084-0.10922-9.463-0.0189-0.34421 0.0101-0.68554 0.0202-1.0005 0.16947-0.63514 0.30124-1.3365 0.17282-2.0048 0.32261-1.5283 0.34253-3.0787 0.59697-4.6171 0.90565-2.1987 0.44191-4.433 0.53384-6.6742 0.41791-1.1419-0.42918-2.3766-0.32092-3.5487-0.62866-1.187-0.31108-2.4234-0.42823-3.6301-0.6697-1.9006-0.3807-3.8175-0.69107-5.6754-1.2645-0.20379-0.0629-0.42294-0.0758-0.58521-0.10369-0.27317-0.23411-0.35766-0.50414-0.39607-0.78067-0.20571-1.4681-0.38622-2.9397-0.60153-4.4061-0.28636-1.9515-0.68914-3.892-0.86221-5.853-0.1037-1.1764-0.3747-2.3207-0.46879-3.4985-0.10368-1.2923-0.38045-2.5734-0.37684-3.8814-0.5384-1.4786-0.16154-3.0881-0.65986-4.5799-0.12314-0.36942-0.05473-0.80604-0.05857-1.2119-0.0084-0.96351-0.09746-1.9162-0.32933-2.8533-0.01488-0.05953-0.0228-0.12362-0.02016-0.18507 0.09289-2.121-0.4904-4.1963-0.41502-6.3178 0.03169-0.8987-0.1337-1.7854-0.29236-2.6694-0.05449-0.30437-0.05689-0.62145-0.05353-0.93254 0.01032-1.0269-0.08137-2.0406-0.33509-3.0374-0.0077-0.02977-0.0077-0.06217-0.0067-0.09314 0.04993-1.3128-0.19227-2.5955-0.42607-3.8756-0.18243-0.99831-0.34805-1.9981-0.60657-2.9863-0.24844-0.94886-0.51296-1.9136-0.5156-2.914-4.8e-4 -0.15194-0.02568-0.31253 0.11306-0.47239 0.51248-0.09433 1.0269 0.11834 1.5156 0.22396 0.85789 0.18507 1.7302 0.18915 2.5821 0.25132 1.3303 0.09698 2.6733 0.15986 3.994 0.31157 1.0451 0.12002 2.1142-0.01345 3.1378 0.29524 0.05809 0.018 0.12482 0.012 0.18675 0.01008 1.4664-0.05713 2.9244 0.13418 4.3766 0.25564 1.0751 0.09001 2.1731 0.01177 3.2326 0.28972 0.05905 0.0156 0.12458 0.01177 0.18675 0.0096 1.3104-0.05041 2.6094 0.1517 3.9052 0.26932 1.1375 0.10322 2.2979 0.0046 3.4191 0.29717 0.05857 0.01513 0.12434 0.0063 0.18699 5e-3 1.8389-0.03505 3.6699 0.15746 5.5024 0.24916 5.0842 0.25372 10.168 0.16202 15.251 0.10346 1.6757-0.01848 3.3615-0.06337 5.0338-0.19155m-3.4649-6.6142c0.22588-0.19827 0.51944-0.09794 0.78588-0.09914 3.0914-0.0132 6.1826-0.0264 9.2736-0.01632 1.0586 0.0036 2.1018-0.23115 3.1627-0.1577 0.34157 0.02352 0.68578 0.0036 0.91166 0.0036 1.9047 1.138 2.939 2.9272 4.2777 4.6339-1.3953 0.21123-2.6908 0.295-3.9671 0.47983-1.1075 0.1601-2.2379-0.0024-3.3226 0.31445-0.05785 0.01681-0.12458 8e-3 -0.18675 5e-3 -1.3094-0.05929-2.6066 0.15266-3.9049 0.247-1.3968 0.10154-2.7991 0.05209-4.1853 0.19635-0.93062 0.09697-1.8502 0.10682-2.8452 0.13466 2.39e-4 -1.9383 2.39e-4 -3.8293 2.39e-4 -5.7417m7.4071 61.547c-0.59097 0.12122-1.121 0.26549-1.6925 0.24316-2.018-0.079-2.71-0.95534-2.9323-2.868-0.05041-0.4299-0.0074-0.87061-0.0074-1.302 0.95414-0.2554 4.7482 0.13778 5.7102 0.58569-0.02304 1.6733-0.31637 2.6039-1.078 3.3411m-38.85-0.65578c-0.28876 0.6229-0.73811 1.0518-1.354 1.2496-0.59481 0-1.1908 0.12409-1.7064-0.0269-0.98367-0.28805-1.7652-0.84349-1.9369-2.0084-0.14306-0.97047-0.32069-1.9313-0.32765-3.0626 2.0014 0.3567 3.8826 0.62242 5.7834 1.0907 0.1445 0.96423-0.04897 1.8735-0.45847 2.7575m-16.246-61.526c1.1553-0.09218 2.2566-0.01824 3.3905 0.05377 0.79116 0.74939 1.5667 1.5437 2.5206 2.1598 1.7931 1.1582 3.7184 1.916 5.8156 2.2902 1.2518 0.22323 2.5019 0.36125 3.7748 0.36582 1.4635 5e-3 2.8809-0.30413 4.3269-0.52088 0.20571 0.11138 0.25156 0.31133 0.27508 0.54128 0.02136 0.20907 0.08953 0.41334 0.14666 0.66034-0.46495 0.12266-0.94694 0.12602-1.3843 0.01992-0.5564-0.1349-1.1116-0.09049-1.6642-0.15242-1.2909-0.14426-2.5965-0.10946-3.8819-0.32957-0.27388-0.04681-0.56073-0.02184-0.84157-0.02184-1.554 0.0012-3.0986-0.11042-4.6325-0.36294-0.06097-0.01008-0.12482-0.0094-0.18699-0.0065-1.3416 0.05542-2.6685-0.16973-4.0017-0.25183-1.4719-0.09069-2.9683-0.10437-4.4114-0.5098-0.18555-0.05161-0.36198-0.08257-0.5324-0.33869 0.49616-1.1687 0.88502-2.3687 1.2866-3.5967m2.5002-2.2727c-0.16586-0.25756-0.25012-0.49135-0.17763-0.82861 0.20979-0.11066 0.37254-0.19611 0.50864-0.26764 0.18051-0.0027 0.259 0.10922 0.31013 0.21315 0.51248 1.035 1.1373 1.9889 1.9083 2.856 1.1841 1.3312 2.6046 2.2967 4.3355 2.7031 1.7083 0.40134 3.4397 0.67594 5.2028 0.8034 2.8425 0.20619 5.5244-0.32981 8.0696-1.5353 2.0624-0.97695 3.6958-2.4813 4.915-4.421 0.83053-1.3216 1.4323-2.7371 1.7549-4.2688 0.01705-0.08065 0.10634-0.14618 0.19563-0.26188 0.24172 0.2842 0.46927 0.55112 0.72899 0.85621-0.06241 1.7986-0.6613 3.4296-1.7412 4.8785-1.5257 2.047-3.5835 3.3723-5.9061 4.3689-1.8087 0.77628-3.6994 1.2299-5.626 1.4393-1.4412 0.15674-2.909 0.1169-4.3759-0.08641-1.74-0.24124-3.3663-0.78156-4.9323-1.5154-1.3264-0.62194-2.4827-1.4901-3.451-2.625-0.62746-0.73547-1.1968-1.4988-1.7194-2.3084m9.1476-18.408c0.01608-0.32597-0.21003-0.58929-0.13634-1.0149 0.09722-0.07345 0.19875-0.21483 0.29188-0.20955 0.61809 0.036 1.199-0.33365 1.8324-0.18315 0.1697 0.27916 0.10538 0.55424 0.03144 0.81732-0.58353 2.0749-0.92894 4.2026-1.4085 6.3005-0.07441 0.32741-0.05521 0.67642-0.08546 1.1003-0.2818-0.72275-0.30485-1.3879-0.33101-2.0593-0.06073-1.5845-0.27196-3.163-0.19443-4.7513m-0.29861 9.7736c-1.018-3.2491-2.4863-6.3288-2.9697-9.7095 0.83533-0.60345 1.7232-0.83989 2.5943-1.108 0.0444 0.06937 0.10586 0.12098 0.10442 0.17043-0.05665 1.7127 0.17571 3.4128 0.23956 5.1207 0.03793 1.0158 0.22155 2.0252 0.2998 3.0408 0.05233 0.68194 0.03817 1.3696 0.04537 2.0547 0.0019 0.16298-0.07681 0.29788-0.31373 0.43087m-9.186 0.6445c2.8387 0.76932 5.7402 1.2403 8.5938 1.9265 0.08089 0.01968 0.14354 0.11474 0.20139 0.16298-0.01008 0.12626-0.01728 0.21819-0.02377 0.30125-0.81924 0.76212-1.8214 1.2431-2.7019 1.8984-0.74267 0.5528-1.5005 1.0857-2.247 1.6337-0.67186 0.49304-1.3756 0.92318-2.1562 1.1956-0.85117-1.1301-1.8483-5.4128-1.6663-7.1185m1.4102-6.2717c1.1142-1.573 2.4937-2.8478 4.222-3.8084 0.9047 3.6459 2.1711 7.0751 3.494 10.729-0.88549-0.54344-1.6498-0.93806-2.33-1.4453-1.4237-1.0622-2.6514-2.336-3.771-3.7158-0.25372-0.31349-0.56841-0.57705-0.84373-0.87397-0.25084-0.27124-0.56409-0.48919-0.77124-0.8855m1.8776 2.7691c0.85981 1.0322 1.7991 1.9803 2.7955 2.8706 0.38406 0.34301 0.88357 0.5564 1.3264 0.83485 0.57129 0.35958 1.1649 0.68915 1.6908 1.138-0.19827 0.16514-0.39918 0.13658-0.56673 0.08809-2.8216-0.81636-5.7885-1.0432-8.5703-2.0125-0.20859-1.8773 0.27172-3.4985 1.1428-5.1711 0.77604 0.79284 1.5346 1.4762 2.1815 2.252m6.536 6.3965c-0.47719 1.2676-0.95246 2.536-1.4489 3.7962-0.62098 1.5775-1.2047 3.1721-2.0365 4.6582-0.05929 0.10682-0.11858 0.21411-0.22539 0.40686-1.91-0.90038-3.307-2.2275-4.2561-4.0175 2.7971-1.5761 5.2938-3.5319 7.9195-5.3173 0.20595 0.12002 0.10826 0.31133 0.04729 0.47359m-0.71939 9.709c-0.45031 0.24604-0.84997-0.0336-1.2319-0.1541-0.3963-0.12458-0.85669-0.18171-1.1947-0.63346 1.4971-2.5946 2.3243-5.5012 3.5341-8.2441-0.19467 3.0477-0.6637 6.0261-1.1075 9.0316m8.4337-0.1337c-0.75804 0.26044-1.5202 0.47047-2.4371 0.42342-1.2981-2.7309-1.8891-5.7261-3.0883-8.7263 0.89222 0.64666 1.4174 1.3365 1.9313 2.0122 0.95342 1.2549 1.9731 2.4582 2.8795 3.7523 0.52184 0.74507 0.83869 1.5012 0.71459 2.5384m-3.2266-8.4426c0.74627 0.30244 1.4772 0.63346 2.2597 1.0706 0.68218 1.3831 0.5108 2.9887 0.82621 4.7462-1.8862-2.3305-3.4239-4.6546-5.5016-6.6805 0.98823 0.01992 1.6599 0.55736 2.4157 0.86365m1.5312-0.02089c-1.2564-0.23019-2.2597-1.0521-3.4671-1.3944h2.5c0.46807 0.36486 0.59433 0.95294 0.96711 1.3944m0.2266-1.4323c0.19251 0.03265 0.34109 0.22083 0.44551 0.39438 0.35789 0.59265 0.92006 0.63802 1.4681 0.49232 0.77988-0.20763 1.6051-0.37086 2.1683-1.054 0.07033-0.08497 0.21051-0.11234 0.29812-0.1565 0.17307-0.39702 0.35982-0.74363 0.69995-1.0103-0.26116-0.64546-0.49952-1.2691-0.57849-1.9004 0.21459-0.20547 0.38286-0.1649 0.54224-0.03697 0.34685 0.27868 0.61401 0.65098 0.72515 1.0545 0.1073 0.39078 0.30293 0.74123 0.41574 1.1613-0.283 0.9383-0.43543 1.9534-1.0929 2.6829-0.04945 0.37398 0.24484 0.49808 0.31877 0.753 0.06505 1.687 0.45679 3.3281 1.061 4.9323-1.2667 1.223-2.7671 1.8512-4.3912 2.463-0.16274-1.4801-0.35069-2.8226-0.42991-4.1805-0.05401-0.92102-0.17114-1.849-0.37638-2.7475-0.16274-0.71459-0.45439-1.4059-1.0209-1.9453-0.23548-0.22419-0.57321-0.3963-0.62242-0.7686 0.07609-0.1457 0.19515-0.15026 0.36942-0.1337m-0.90782-2.5391c0.16442-0.27148 0.41022-0.46039 0.63226-0.62578 0.46447-0.05209 0.62962 0.25228 0.82309 0.54344 0.47191 0.71075 0.62314 1.5372 0.87085 2.3293 0.08497 0.27124 0.07825 0.53936-0.01416 0.86965-1.0775-0.57849-1.2883-1.6507-1.7098-2.5816-0.17571-0.14906-0.43927 7.2e-4 -0.60393-0.17355-0.05281-0.1241-0.06577-0.25012 0.0017-0.3615m5.3955 0.86077c-0.02593 0.33989-0.22468 0.50696-0.38934 0.82237-0.24172-0.46399-0.13202-0.80916-0.18651-1.1831 0.44983-7.2e-4 0.47359 0.24172 0.57585 0.36078m-1.5341-1.9969c0.42078-0.01488 0.69779-0.31061 1.1368-0.22611 5e-3 0.50288 0.11042 0.97239-0.06505 1.4294h-0.37998c-0.03169-0.46111-0.44431-0.72899-0.69179-1.2033m-0.44671 3.8173c-0.19947 0.08738-0.35862 0.01632-0.55401-0.17523-0.25084-0.97887-0.46063-2.0379-1.0154-2.9116 0.05089-0.2386 0.16322-0.33485 0.31037-0.39702 0.5 0.04657 1.3593 2.4301 1.259 3.4839m-0.33317-3.4414c0.59769-0.13274 0.61882 0.29356 0.75684 0.51872 0.45607 0.74411 0.69299 1.5564 0.59649 2.4376-0.17187 0.17811-0.28924 0.15842-0.47047 0.09746-0.06073-1.0506-0.64882-2.0021-0.88286-3.0537m-4.6762 0.49136c1.0331-0.83197 2.0859-1.6404 3.1058-2.4882 1.031-0.85765 1.9529-1.8332 2.8564-2.8214 0.81132-0.88718 1.5876-1.8063 2.428-2.7667 1.3521 0.94358 2.2033 2.2259 3.0588 3.4906 0.24196 0.35717 0.56097 0.76596 0.37902 1.3291-1.1263 0.33005-2.2763 0.65602-3.4196 1.0046-1.1152 0.34013-2.2247 0.70019-3.3343 1.0586-0.5312 0.17163-1.0667 0.30245-1.5113 0.25492-0.30389 0.03576-0.31397 0.24484-0.47599 0.33653-0.83725-0.40014-1.4688-0.12122-1.9292 0.72059-0.40134 0.02089-0.77292 0.289-1.1827 0.23884-0.14018-0.17042-0.06529-0.28468 0.02496-0.35741m-1.1207-0.22636c0.58929-1.1608 1.0014-2.3951 1.4887-3.5986 0.71891-1.7751 1.4313-3.5528 2.1743-5.3183 0.20091-0.47695 0.16154-1.0372 0.51872-1.4894 1.7335 0.4868 3.4085 1.0571 4.8634 2.1416-0.08858 0.39918-0.37734 0.65386-0.60249 0.85069-0.96615 0.84445-1.6889 1.8965-2.553 2.8238-1.0264 1.1015-2.1399 2.1126-3.336 3.0381-0.89774 0.69394-1.8128 1.3833-2.5225 2.3672-0.253-0.32309-0.15818-0.56457-0.03097-0.81516m3.4205-10.61c0.03192 0.37542-0.01728 0.68194-0.1217 1.0202-0.26524 0.85813-0.67306 1.6527-1.0065 2.4791-0.5408 1.3404-0.98511 2.7148-1.5002 4.0629-0.3927 1.0271-0.72923 2.0859-1.4577 2.9887 0-0.40254-0.06193-0.81612 0.0096-1.2052 0.60369-3.282 0.9155-6.6192 1.7859-9.8434 0.82044 0.04897 1.5247 0.34157 2.2907 0.49784m6.2868 11.011c-0.29596-0.60681-0.64522-1.1397-1.4544-1.5134 1.8075-0.5372 3.3848-1.0058 4.9712-1.4769 0.65578 0.78828 0.41814 1.7837 0.66826 2.6702-0.15482 0.20235-0.37782 0.31301-0.62482 0.31517-1.1822 0.01104-2.3646 5e-3 -3.5602 5e-3m0.71075 1.8387c-0.12146-0.3867-0.2482-0.789-0.4047-1.2868 0.5564 0 1.0766 0.0034 1.5967-9.82e-4 0.79524-6e-3 1.5948 0.06169 2.397-0.22684 0.17379 0.5408 0.31973 0.99495 0.48679 1.5146zm1.3973 6.2976c-0.26572 0.59049-0.62265 1.0629-1.3123 1.3192-0.26524-0.64882-0.494-1.2475-0.49256-1.9712 0.68458 0.06025 1.2134 0.35141 1.8048 0.65194m-1.8956-1.3848c-0.5072-0.71915-0.17691-1.5965-0.51272-2.3224 0.24868-0.6541 0.48799-1.2837 0.71915-1.89 0.81516-0.17283 3.0823-0.19011 4.1085-0.03961 0.08617 1.3447-1.077 4.1999-2.1255 5.1915-0.72755-0.31229-1.4649-0.62842-2.1894-0.9395m-8.1471-19.678c2.6296-0.06289 4.9464 0.76572 7.0955 2.2808 2.1642 1.5259 3.6982 3.5509 5.0561 5.7594 0.35766 0.58161 0.67834 1.1774 0.97983 1.8063-0.19779 0.43447-0.36726 0.76212-0.72635 1.0254-0.3927-1.6183-1.2139-2.9755-2.1289-4.2967-1.4306-2.065-3.3528-3.4556-5.6872-4.3135-1.3041-0.47935-2.657-0.79068-4.0038-1.1162-0.32981-0.08018-0.63898-0.19539-0.94094-0.27868-0.14594-0.33989 0.09073-0.55208 0.18603-0.79884 0.05929-0.0252 0.11402-0.06697 0.16971-0.06817m19.744 10.664c0.37998 0.43207 0.53576 0.97239 0.83485 1.4635 0.08593 1.338 0.06936 2.6565-1.1049 3.6284 0.02784 0.29621-0.20283 0.44407-0.38022 0.59673-0.27268 0.235-0.58185 0.42822-0.86821 0.6349-0.30869-0.19947-0.28516-0.46951-0.22083-0.80532 0.50696-0.03097 0.91766-0.40398 1.4417-0.45607-0.02089-0.19155 0.01944-0.36246 0.13154-0.52736 0.73763-1.09 0.49952-2.156-0.06361-3.229-0.33965-0.64642-0.8915-1.0074-1.5706-1.2748-1.7098-0.17235-3.204 0.14426-3.8908 2.0742-0.07729 1.4534 0.64354 3.0492 2.2878 3.4733 0.11978 0.2278 0.33269 0.43231 0.26068 0.74051-0.95943 0.1037-1.3632-0.04009-2.813-1.0062-0.55664-0.7686-0.69947-1.7167-0.92462-2.6445-0.13466-0.55617-0.15554-1.0643-0.04225-1.6371 0.21027-1.0624 0.89966-1.699 1.7765-2.1046 1.8797-0.87013 3.8351-0.4179 5.1459 1.0734m-3.5734-3.3043c0.13826 0.35789 0.07537 0.74819 0.08233 1.277-0.39726-0.40158-0.82213-0.61498-0.89726-1.1289-0.0088-7.2e-4 -0.01705 9.83e-4 -0.02593-4.79e-4 -0.0048-0.0091-0.01009-0.01968-0.01488-0.02929-0.05617-0.0084-0.11786-0.01392-0.05905-0.11786 0.02136 0.04272 0.04009 0.08018 0.05905 0.11786 0.01272 0.0019 0.0252 0.0041 0.036 0.0072 9.83e-4 0.0081 0.0038 0.01464 0.0048 0.02257 0.27028 0.02184 0.48223-0.25564 0.81492-0.1481m0.7746 1.301c-0.37038-0.46279-0.38694-0.99663-0.04009-1.6138 0.19251 0.57273 0.16826 1.0624 0.04009 1.6138m1.1654-2.4114c-0.81924 0.20691-1.6558 0.4179-2.6507 0.66874 0.32813-0.58929 0.83173-0.51872 1.1812-0.73211 0.36198-0.22179 0.76428-0.3783 1.1263-0.5528 0.30557 0.11258 0.43663 0.28684 0.34325 0.61617m7.5463-4.5129c0.38286-0.08833 0.52256 0.1661 0.62962 0.35213 0.33389 0.58089 0.64978 1.1783 0.63154 2.0672-0.48871-0.87349-1.1755-1.4846-1.2612-2.4193m-0.68048 1.2814c-0.06673-0.18003-0.13658-0.35141 0.02856-0.5348 0.22587-0.04009 0.32837 0.06625 0.3699 0.16779 0.38766 0.94862 1.1793 1.6505 1.5679 2.5955 0.01537 0.03697-0.04657 0.1061-0.07105 0.15794-0.18819 0.06913-0.30893-0.05185-0.38814-0.17571-0.48271-0.75036-1.1884-1.3483-1.5072-2.2107m-0.18363 4.3055c-0.56097-0.23644-0.84061-0.70451-1.0115-1.2429-0.15746-0.4952-0.63634-0.94958-0.22251-1.6087 0.69515 0.58017 0.89342 1.4085 1.2703 2.1219 0.11762 0.22299 0.15218 0.46951-0.03625 0.72971m-1.0163-3.9707c1.4301 0.34037 2.2818 1.9095 1.951 3.3792-0.08569-0.03-0.20979-0.03408-0.24652-0.09265-0.6409-1.0146-1.1275-2.1085-1.7045-3.2866m-1.2463 1.4774c0.90398 0.97983 0.89918 1.7494 9.82e-4 2.2919-0.07921-0.76188-0.10538-1.4906-9.82e-4 -2.2919m0.48583 3.1159c-0.75396 1.7119-1.4165 2.5941-2.3197 3.0938-0.30653-0.16346-0.32189-0.50336-0.51536-0.8214 0.7698-0.69875 1.4604-1.4767 2.0322-2.343 0.28348-0.02737 0.55688-0.13466 0.80292 0.07057m-4.1934 10.712c0.16034 0.15914 0.1229 0.35237-0.0108 0.58761h-2.6692c-0.34277-0.2782-0.20307-0.54776-0.1589-0.92678 0.97647 0.48992 1.886 0.49208 2.8389 0.33917m-2.7047-5.4729c0.40734-0.14282 0.62338 0.01032 0.68362 0.2722 0.33917 1.4681 0.6529 2.9421 0.96807 4.416 0.01752 0.08113 0.03601 0.19299-0.03793 0.23428-0.1349 0.12626-0.25492 0.07489-0.37398 0.05281-0.03696-0.04776-0.10874-0.09793-0.10586-0.14282 0.05737-0.79788-0.18435-1.5288-0.49208-2.2451-0.28012-0.65194-0.50024-1.3231-0.63658-2.0189-0.03457-0.17499-0.0053-0.36222-0.0053-0.56841m-0.04009 2.2734c-0.08521 0.0408-0.12098 0.07081-0.13562 0.06289-0.84733-0.47071-1.549-1.8766-1.3444-2.7472 0.05473-0.23164 0.16995-0.48031 0.33149-0.65122 1.2602-1.331 3.3624-1.6061 4.4517 0.47983 0.18963 0.36342-0.0077 0.81684 0.26812 1.0655-0.17139 1.1044-0.65122 1.8286-1.7386 2.0434-0.58281-0.96543-0.38646-2.1975-0.95655-3.1721-0.38742 0.03072-0.69443 0.05497-0.9107 0.07201-0.36342 0.19947-0.39798 0.48896-0.48776 0.73403 0.1409 0.72683 0.27916 1.439 0.52232 2.1128m-6.554 13.615c0.0081 0.07369-0.07729 0.1577-0.14594 0.2878-0.83053-0.23308-1.692-0.04201-2.5451-0.253-0.79164-0.19611-1.6793 0.1433-2.4609-0.35741-0.12746-0.42366-0.14738-0.85669-0.3603-1.2645 1.7213-0.6409 3.3891-1.1911 4.885-2.1937 0.09817 0.22708 0.21315 0.39006 0.23644 0.56505 0.14354 1.0701 0.27004 2.1428 0.39078 3.2158m14.091 0.72059c-1.7909 0-3.45 0.1025-5.0895-0.03097-1.4309-0.11666-2.8564-0.12194-4.2832-0.12194-1.3377-2.4e-4 -2.6514-0.23284-4.0218-0.23572-0.46039-1.4589-0.45295-2.9404-0.70691-4.3163 0.16106-0.22467 0.32837-0.18531 0.47647-0.19731 1.573-0.1265 3.1507-0.14306 4.7246-0.30173 0.92078-0.09289 1.8538-0.17043 2.7731-0.27148 1.4909-0.16418 2.981-0.09625 4.4692-0.17667 0.58089-0.03168 1.1565-0.16178 1.7684-0.25204 0.21171 1.9203-0.24724 3.8562-0.11042 5.9042m0.17019-8.1778c-0.0034 0.49928-7.2e-4 0.99879-7.2e-4 1.5379-0.63682 0.18963-1.2633 0.26548-1.9121 0.30869-1.3975 0.09313-2.8111 0.03145-4.1903 0.20427-1.6272 0.20403-3.2671 0.24748-4.8905 0.48799-0.66898 0.09914-1.3651 0.01656-2.1642 0.01656 0.59097-0.77244 1.3015-1.3137 1.801-2.0408 0.52664-0.76668 1.007-1.5494 1.374-2.4059 0.35549-0.82861 0.36366-1.7407 0.6697-2.6344 0.42222 0.05329 0.82428 0.24724 1.198 0.39054 0.36894 0.14138 0.86245-0.02256 1.168 0.37134-0.38598 0.33725-0.66178-0.20235-1.0634 0.0017-0.37206 0.65362-0.43423 1.1471-0.20235 1.7691 0.77868 0.02617 1.555 0.2482 2.3677 0.21963 0.41142-0.0144 0.78084-0.18267 1.1841-0.21939 0.15002-0.01345 0.28228-0.22515 0.45871-0.37782-0.27196-0.32957 0.0252-0.79596-0.31013-1.1135-0.23548-0.21699-0.47095 0.0024-0.70139-0.0021-0.23284-0.12266-0.28252-0.31829-0.23692-0.554 2.6483-1.5458 2.9064-3.5741 2.4719-5.9407 1.229-0.55136 1.4969-1.9789 2.4853-2.8192 0.48871 0.06337 0.81612 0.3867 1.1318 0.72875 0.46063 0.91406 0.32477 1.897 0.23236 2.8411-0.08041 0.8238-0.18867 1.6563-0.33989 2.4709-0.30053 1.6183-0.26956 3.2643-0.49808 4.8871-0.08641 0.61353-0.02856 1.2475-0.03265 1.8723m-5.2786-16.152c0.05185-0.26548 0.25732-0.33581 0.45175-0.43735 1.1805-0.61761 2.3701-1.2148 3.5048-1.9205 1.0994-0.68386 2.0149-1.5504 2.8058-2.5559 0.15554-0.19803 0.33509-0.36078 0.4928-0.57801 0.45463 0.18555 0.765 0.3819 0.98487 0.70619 0.0027 0.28996-0.22443 0.42222-0.45343 0.62794-0.30773-0.0641-0.65074-0.32525-1.0722-0.04129-0.19035 0.57057-0.77316 0.98223-0.91118 1.6138-0.2782 0.23188-0.66442-0.3591-0.84517 0.20187-0.13058 0.27028-0.0168 0.58785-0.07105 0.89342-0.30485 0.39294-0.76452 0.33629-1.2136 0.38286-0.55352 0.94238-0.05425 1.9721-0.34493 3.1339-0.53168 0.67594-1.0622 1.6306-2.035 2.2357-0.66562-0.47863-1.3384-0.89534-2.1848-0.94766v-1.7849c0.34709-0.39606 0.95511-0.16803 1.2453-0.62794 0.03936-0.35117-0.26044-0.59529-0.35381-0.90206m-7.2923 0.15674c0 7.2e-4 0 0.0012 2.4e-4 2e-3 0.14258-0.02041 0.19131 0.05593 0.18747 0.18531 0.13586-0.01008 0.17547 0.07225 0.18315 0.18507 0.0024-2.4e-4 0.0038 4.8e-4 0.0063 2.4e-4 0 0.0036 9.83e-4 0.0063 0.0012 0.0098 0.34925 0.20883 0.62362 0.46255 0.55424 0.92126 0.0029 0.0017 5e-3 0.0036 0.0081 5e-3 0 0.0034 7.2e-4 0.0057 9.83e-4 0.0087 0.13922-0.02136 0.17739 0.06073 0.17979 0.18003 0.0024-2.39e-4 0.0031 4.81e-4 0.0053 4.81e-4 0 0.0029-4.81e-4 6e-3 -4.81e-4 0.0088 0.75756 0.54224 1.0401 1.4131 1.4873 2.1695 0.02401 0.0408-0.06721 0.14954-0.10154 0.22011-0.08353-0.01224-0.17691-0.0014-0.19515-0.0336-0.40134-0.69203-0.7974-1.3874-1.1834-2.0886-0.03817-0.06961-0.0087-0.17619-0.0072-0.2674-0.0017-0.0012-0.0029-0.0027-0.0046-0.0036 0-0.0019-2.4e-4 -0.0036-2.4e-4 -0.0057-0.13538 0.01416-0.17259-0.0677-0.17979-0.18003-0.0038 4.79e-4 -0.0065 2.4e-4 -0.01056 9.82e-4 9.83e-4 -5e-3 2.41e-4 -0.0096 9.83e-4 -0.01464-0.34493-0.21051-0.53384-0.51536-0.55424-0.92126-0.0021-0.0014-0.0038-0.0031-0.0063-0.0041 0-0.0021-7.21e-4 -0.0038-9.83e-4 -6e-3 -0.12866 0.0087-0.18243-0.06025-0.18483-0.18291-0.12434-0.0012-0.17883-0.07081-0.18579-0.18747-9.83e-4 2.4e-4 -0.0012 0-0.0021 0 4.8e-4 -9.83e-4 4.8e-4 -0.0021 7.2e-4 -0.0036-0.58833-0.62962-1.1875-1.2499-1.7633-1.8912-1.8992-2.1164-4.2554-3.4702-7.0204-4.0456-0.76788-0.15962-1.5665-0.34013-2.4762-0.20931 0.36942-1.2494 0.69227-2.3872 1.0943-3.5067 0.39054-1.0876 0.57945-2.2455 1.0799-3.3855 0.77436 0.57897 1.324 1.2384 1.7734 1.9582 0.76836 1.2316 1.4501 2.5175 2.2067 3.7573 0.41742 0.68386 0.89726 1.3317 1.3759 1.9765 0.84949 1.1435 1.7215 2.2707 2.5806 3.4073 0.31613 0.41862 0.61641 0.84949 0.9371 1.2645 0.1577 0.20403 0.29188 0.40278 0.21195 0.6745 4.8e-4 4.8e-4 9.83e-4 0.0012 0.0014 0.0017m-15.104 10.374c0.12506 0.07609 0.11378 0.16707 0.03336 0.27028-0.12626-0.07537-0.12218-0.16538-0.03336-0.27028m0.57057 0.54272c0.27244-0.05929 0.28036 0.13922 0.34493 0.26188 0.4023 0.76596 0.72035 1.5576 0.96255 2.397 0.48631 1.6853 1.0816 3.3389 1.6042 5.0139 0.19059 0.60969 0.61521 1.1289 0.67186 1.8416-1.5835 0.02065-3.1608 0.16418-4.8019-0.24196 0.0264-1.567 0.41046-3.0948 0.57489-4.6445 0.1649-1.5526 0.32957-3.1114 0.64354-4.6279m-11.727 2.5692c0-0.31013-0.01128-0.71387 0.0019-1.1171 0.03841-1.1265-0.13178-2.2225-0.51752-3.2777-0.50456-1.3795-0.49496-2.8094-0.39294-4.2335 0.07249-1.0146 0.39246-1.9995 0.8022-2.927 0.84877-1.9205 1.9798-3.6241 3.7014-4.922 2.1896-1.651 4.6253-2.7307 7.2705-3.3353 0.65746-0.1505 1.4229-0.22107 2.1301 0.26932-0.10586 0.34133-0.18723 0.60513-0.27748 0.89702-0.21531 0.20787-0.49856 0.27916-0.82501 0.28948-2.8908 0.09217-5.3737 1.1973-7.636 2.9601-1.4928 1.1632-2.5432 2.62-3.2664 4.325-0.29693 0.69971-0.46855 1.4553-0.61569 2.2179-0.28132 1.4577-0.22011 2.92-0.14042 4.3727 0.06217 1.1311 0.32717 2.2547 0.71195 3.3351 0.13418 0.37686 0.26668 0.75419 0.40614 1.1479-0.11714 0.19323-0.2266 0.37446-0.31325 0.51824-0.49304 0.14138-0.76716-0.07994-1.0394-0.52016m14.673-30.627c0.26908-0.40614 0.71891-0.40038 1.0257-0.61617 0.33389 0.32453 0.25948 0.6373 0.23884 0.96591-0.18339 0.09698-0.37062 0.19611-0.54896 0.29068-0.33605-0.12146-0.47983-0.4083-0.71555-0.64042m-1.6241-0.97503c-0.44503-0.2878-0.92342-0.47791-1.5101-0.59793-0.46615 0.12434-0.99231 0.25012-1.44 0.63106-0.25036 0.21291-0.58833 0.36054-0.99663 0.22396-0.18483-0.09865-0.3663-0.25636-0.48416-0.51704 0.20547-0.37494 0.5012-0.60705 0.86629-0.80988 1.0852-0.60321 2.2527-1.0154 3.4176-1.3982 1.3262-0.43567 2.6104-0.95438 3.8451-1.5874 0.73259-0.37494 1.5084-0.54776 2.2931-0.68506 0.87709-0.15362 1.6363 0.22107 2.1505 0.95222-0.3615 0.6613-0.97575 1.0247-1.6476 1.2686-1.1755 0.42654-2.2398 1.0307-3.2199 1.8017-0.31325 0.24628-0.67666 0.42895-1.0144 0.64474-0.73931 0.47167-1.4961 0.56793-2.2599 0.07321m29.309-3.0557c0.28756-0.43615 0.65434-0.63178 0.98655-0.71051 0.50312-0.11906 0.91598-0.32045 1.2844-0.66994 0.12722-0.12098 0.31949-0.17355 0.51632-0.27484 0.06481 0.21843 0.07537 0.36678-0.03769 0.43039-0.83917 0.47239-1.6085 1.1078-2.7496 1.2249m-0.88789-3.3382c0.01728-0.25252 0.14786-0.33389 0.36462-0.46039 0.68314 0.75924 1.1807 1.6443 1.6308 2.5641-0.21507 0.1457-0.39822 0.11402-0.66538 0.06937-0.44911-0.70139-0.7974-1.5293-1.33-2.1731m-2.5804 1.2974c-0.28324 0.18195-0.55857 0.3663-0.95679 0.35021-0.03336-0.50096 0.26212-0.77724 0.53216-1.0562 0.47527-0.49112 0.95511-0.97983 1.4477-1.4539 0.82789-0.7962 1.6438-1.5972 1.9719-2.7167 0.31709-0.05737 0.53648 0.2794 0.82501 0.02784 0.18459 0.86653-0.25348 1.5178-0.71771 2.0614-0.90446 1.0595-1.9169 2.0257-3.1022 2.7873m2.6313-5.4126c-0.2842 1.2861-1.0379 1.9721-1.7455 2.6884-0.34133 0.11858-0.68098 0.06361-1.0701 0.05689 0.12626-0.69947 0.72107-1.0514 1.0686-1.5578 0.36654-0.53312 0.90758-0.90014 1.747-1.1875m-3.7321 4.0329c-0.15458-0.16466-0.03673-0.35333-0.07801-0.51992-0.01008 0.0014-0.02016 0.0034-0.03048 0.0048-2.4e-4 -0.0065 0.0014-0.01176 0.0014-0.01824-0.21793 0.06025-0.32643 0.25732-0.46229 0.40758-0.42246 0.46759-0.89222 0.85861-1.6176 1.085-0.64209 0.10418-1.3492-0.03816-1.9894-0.44142-0.11234-0.25396-0.01848-0.43135 0.1445-0.60105 0.64834-0.6781 1.4097-1.2206 2.1843-1.7316 1.2444-0.82164 2.4625-1.6582 3.4719-2.7787 0.6265-0.69539 1.2451-0.85645 2.1517-0.73571 0.22107 0.30989-0.11162 0.50936-0.1385 0.79068-1.5046 0.51968-2.36 1.746-3.1819 2.9829-0.20931 0.31493-0.56337 0.58257-0.56265 1.0223 0.0084-0.0024 0.01584-0.0062 0.02496-0.0079 0.0024 7e-3 0.0027 0.0144 0.0041 0.02136 0.45895-0.06841 0.8951-0.36534 1.3963-0.13034-0.35429 0.40686-0.68386 0.84421-1.3183 0.65026m-3.8195-2.7403c1.3466-0.78564 2.8996-1.1375 4.5369-1.796-1.0442 1.4424-2.5295 1.9008-3.7866 2.7331-0.42726-0.21987-0.74675-0.4047-0.75035-0.9371m8.2736-2.4465c0.48871 0.06385 0.52664 0.43951 0.67978 0.71123-0.25468 0.31709-0.25468 0.31709-0.62097 0.35381-0.17811-0.34469-0.08161-0.69058-0.05881-1.065m15.877 14.743c0.47383 0.32573 0.55184 0.80436 0.77076 1.1879-0.2554 0.42967-0.58209 0.65962-1.0312 0.79068-0.82597 0.24052-1.6301 0.54728-2.4652 0.771-1.0713 0.28684-2.1147 0.67642-3.0741 1.2566-0.43231-0.25852-0.5336-0.69851-0.76764-0.98271 1.9282-1.6925 4.2455-2.4013 6.5674-3.0235m-0.41047 12.838c-1.7355-2.8576-3.3041-5.6209-5.0981-8.3408 1.2787-0.7842 2.548-1.2239 3.9541-1.4873 0.26188 3.2472 0.89726 6.4207 1.144 9.8281m2.4083 1.9501c-0.21987-0.08329-0.08473-0.18507-0.0372-0.29548 0.1241 0.09722 0.1277 0.18771 0.0372 0.29548m3.2573-8.5326c-0.5384 1.1735-0.88021 2.4148-1.3132 3.6246-0.2902 0.80964-0.5192 1.639-0.85981 2.434-0.15218 0.35525-0.33149 0.64474-0.60801 0.90398-0.43038 0.40302-0.83605 0.83221-1.2395 1.2376-0.31373-0.01968-0.45583-0.22996-0.64666-0.44311 0-0.1577-0.03145-0.34805 0.0048-0.52496 0.72203-3.5372 1.1555-7.1356 2.1721-10.697 1.2729 0.08665 2.1481 0.7806 3.1682 1.2009-0.10202 0.80076-0.34973 1.5492-0.67786 2.2638m-0.65028 4.7981c-0.15986 0.19731-0.30989 0.47599-0.64882 0.41262-9.83e-4 0.0048-0.0021 0.0096-0.0031 0.0144-0.0065 0.0043-0.01368 0.0087-0.01992 0.01272-0.0038 0.06985-0.0027 0.14666-0.12746 0.0785 0.04464-0.02712 0.08593-0.05305 0.12746-0.0785 4.79e-4 -0.01008 0.0012-0.01992 0.0024-0.02953 0.0074 0.0019 0.01345 9.82e-4 0.02065 0.0024 0.19947-1.2523 0.77604-2.38 1.2302-3.5405 0.43663-1.1152 0.85477-2.2376 1.2736-3.3572 0.58977 0.05401 1.1094 0.42006 1.9635 1.3768-1.1654 1.783-2.481 3.4544-3.8185 5.1082m-1.5437 4.7575c-0.29524-0.10034-0.44119-0.30101-0.60009-0.50648 0-0.08593-0.02545-0.18747 0.0041-0.2686 0.22395-0.60873 0.60609-1.1457 0.78636-1.7796 0.06385-0.22468 0.23932-0.45127 0.4251-0.60177 1.6594-1.3476 2.7707-3.1486 4.0528-4.8115 0.37542-0.48704 0.66898-1.054 1.2388-1.4541 1.5746 1.5482 2.5842 3.3934 3.0715 5.637-3.0415 1.3324-5.9383 2.7698-8.9786 3.7851m0.77964 1.0238c-0.2561-0.1008-0.27867-0.37468-0.41141-0.60247 2.8872-0.98247 5.6416-2.2743 8.3415-3.5062 0.32429 0.1325 0.42271 0.31037 0.42271 0.55016 0 0.34277 0.0238 0.68746-6e-3 1.0278-0.11042 1.259-0.33533 2.4983-0.79404 3.681-0.084 0.21747-0.14451 0.48896-0.37278 0.57609-2.4589-0.40662-4.8012-1.1419-7.1797-1.7263m-1.0895 1.132c0.39222-0.19299 0.68962-0.33917 1.0012-0.49207h1.1118c1.8387 0.86341 3.866 1.0989 5.7321 1.613 0.18795 0.31037 0.10298 0.5024-0.01632 0.69515-0.65986 1.0725-1.3056 2.1558-2.2948 2.9935-1.9297-1.5389-3.4851-3.4013-5.534-4.8096m-0.1277 0.72827c0.6541 0.44887 1.4609 0.64498 1.8272 1.3908 0.9131 0.58809 1.5672 1.4697 2.4191 2.1315 0.33293 0.25876 0.68794 0.53408 0.90758 1.0557-0.62386 0.67018-1.3296 1.138-2.1546 1.6118-1.3269-1.9417-1.9407-4.1687-2.9993-6.1898m-1.4359-0.82165c0.24124 0.08665 0.38982 0.26548 0.50312 0.46879 0.36053 0.6469 0.72683 1.2914 1.061 1.952 0.7998 1.5797 1.3646 3.2693 2.3072 4.8118-1.3036 0.62866-2.5948 1.0768-4.1133 0.99615 0-0.92678-0.0012-1.8178 4.81e-4 -2.7088 0.0019-0.9335 0.0077-1.8672 0.01128-2.8007 0.0029-0.89438-0.05641-1.794 0.2302-2.7191m1.0329-15.297c-0.753 3.3139-1.3504 6.6526-1.9376 9.9622-0.13538 0.04153-0.20571 0.01944-0.21051-0.05136-0.05545-0.83125-0.21747-1.6493-0.2842-2.4815-0.09842-1.2263-0.32069-2.4424-0.47215-3.6654-0.1469-1.1911-0.38862-2.3788-0.21291-3.5758 1.0374-0.45079 2.0509-0.78132 3.1174-0.18819m10.623 6.5175c-0.44215-1.0475-0.83581-2.1106-1.4371-3.0881-0.60177-0.97815-1.284-1.8948-1.9959-2.7878-0.45751-0.57345-0.93974-1.1714-1.5348-1.5746-0.3903-0.26428-0.88934-0.46999-1.2511-0.7614-0.39558-0.31853-0.94454-0.29452-1.2576-0.70355-0.62434-0.0034-1.1143-0.48511-1.7544-0.46663-0.96687 0.02712-1.9352 0.0072-2.6908 0.0072-0.39534-0.06121-0.36726-0.28396-0.51512-0.36654-0.30725-0.07849-0.58569-0.01296-0.88502 0.13154-0.44335 0.21411-0.91502 0.35766-1.4167 0.41598-0.42462 0.04921-0.86509 0.13106-1.2525 0.30221-1.2189 0.53792-2.3641 1.2136-3.4299 2.018-0.19323 0.1457-0.4023 0.13754-0.59769 0.07201-1.2107-1.4042-2.2604-2.9059-3.3401-4.3845-0.37375-0.51196-0.65363-1.0972-1.0588-1.5792-0.60753-0.72395-0.88286-1.6226-1.3725-2.4052-0.07201-0.11498-0.02688-0.30317-0.03481-0.43927 0.58113-0.62794 0.65866-0.87013 0.53096-1.6503-0.29909-0.0965-0.58329-0.08473-0.88766 0.05617-0.29164 0.13558-0.54224 0.3953-0.90638 0.36722-0.51152-0.88285-1.0156-1.7532-1.4889-2.571 0.25996-1.055 1.2035-1.8605 0.77748-3.0264 0.25012-0.37326 0.16538-0.77148 0.11882-1.1685-0.26764-0.28996-0.52016-0.56385-0.69803-0.75612-0.31661-0.05473-0.51176-0.05593-0.68026-0.12314-0.69394-0.27772-1.3634-0.1337-1.9618 0.20403-0.30341 0.17139-0.6181 0.29044-0.93158 0.39174-0.96807 0.31253-1.9501 0.58065-2.8874 0.98391-0.95967 0.41286-1.988 0.66802-2.8752 1.223-0.20859 0.76764 0.55809 1.0653 0.74603 1.5617-0.05377 0.49808-0.44359 0.5468-0.6697 0.68362-0.35261 0.51488-0.62098 1.0031-0.44191 1.6032 2.3807 0.99159 2.4237 0.98967 4.2443-0.21123 0.22515 0.03241 0.47599-0.10058 0.68098 0.07489-0.1613 0.62602-0.9395 0.95775-0.74771 1.7768 0.17139 0 0.3759 0.05377 0.53312-0.0094 0.59865-0.241 1.2115-0.43735 1.7679-0.79428 0.59361-0.38046 1.0038-1.013 1.7506-1.2614 0.43375 0.71795 0.86101 1.4237 1.2914 2.1358-0.21459 0.23404-0.40158 0.43831-0.56601 0.61785-0.01968 0.28924-0.08402 0.54056 0.08449 0.74363 0.16034 0.10538 0.40302 0.0077 0.48463 0.29548-0.03528 0.07609-0.13274 0.18603-0.13178 0.29525 0.01128 0.99879-0.24004 1.9601-0.37254 2.9383-0.17475 1.2864-0.49208 2.5458-0.63778 3.8351-0.03072 0.27076-0.18267 0.52592-0.1649 0.81276 0.05137 0.82429-0.45799 1.5442-0.43759 2.3629-0.53024 1.0353-0.69515 2.1966-1.3579 3.2175-0.74555 1.1479-1.573 2.0806-2.8125 2.6438-0.2242 0.10178-0.45391 0.19971-0.65818 0.33413-0.55232 0.36486-1.1519 0.6589-1.7374 0.94478-0.80652 0.39366-1.5883 0.82525-2.3622 1.2729-0.42366 0.24532-0.83605 0.58521-1.306 0.63154-0.4071 0.04033-0.67282 0.28732-0.98703 0.40878h-0.95582c-0.35766-0.3963-0.70403-0.77172-0.98247-1.2184-0.289-0.46327-0.55352-0.95751-0.88766-1.3756-0.51104-0.6397-0.98247-1.3056-1.4565-1.969-0.69227-0.96831-1.354-1.9594-2.0103-2.9529-0.99015-1.5-2.0141-2.9784-2.8898-4.5525-0.35597-0.63946-0.64546-1.3089-1.0816-1.9169-0.39222-0.54704-0.89246-0.97335-1.2957-1.4817-0.34301-0.43255-0.71051-0.74651-1.204-0.94814 0.10826-0.36102-0.35213-0.42078-0.33653-0.79788 0.2458-0.07873 0.29668-0.35693 0.42006-0.58233 0.78732-0.46135 1.5372-0.97647 2.4248-1.2403 0.45655-0.13538 0.9023-0.33173 1.3226-0.55736 0.45319-0.24268 0.85741-0.56745 1.1654-0.96711 0.07321-0.25612 0.14066-0.49136 0.20691-0.72515-0.15074-0.27196-0.30052-0.54152-0.39606-0.71267-0.60921-0.30917-1.0802-0.67282-1.7479-0.88406-2.1558 0.2782-4.0986 1.457-6.1901 2.2067-0.27772 0.03097-0.55592 0.06193-0.8202 0.09145-0.1349 0.09914-0.18195 0.24964-0.34901 0.31301-0.98031 0.37206-1.9589 0.74915-2.9244 1.1579-0.5012 0.21243-1.0797 0.33293-1.3603 0.86005-0.02185 0.75084-0.0034 1.4599 0.53216 2.035 1.0972 0.18267 1.7244-0.83269 2.4753-1.0197 0.40614-0.06241 0.37278 0.20019 0.56144 0.26332 0.78132-0.18267 1.4061 0.54128 2.1562 0.45271 0.50816 0.34853 0.74507 0.79788 0.82405 1.3452-0.06409 0.16635-0.20307 0.31685-0.13874 0.5252 0.82405 1.0888 0.92414 1.8274 0.49424 3.228-0.23308 0.75924-0.55304 1.5005-0.83029 2.246-0.34829 0.93686-0.71675 1.8867-0.88694 2.8876-0.02112 0.12386-0.13874 0.20067-0.22804 0.22996-1.4616-0.31517-2.8694-0.18867-4.2458 0.25204-1.9085 0.61065-3.6186 1.6034-5.1788 2.849-0.71339 0.56961-1.4621 1.0854-2.0718 1.7984-0.96639 1.1294-1.7535 2.3485-2.2352 3.7487-0.31061 0.90182-0.5228 1.8243-0.6745 2.7811-0.20043 1.2638-0.13466 2.4918 0.15026 3.6843 0.3615 1.5144 0.59985 3.0288 0.66826 4.5789 0.03001 0.6757 0.21315 1.2885 0.8999 1.5979 0.0252 0.93542 0.61881 1.6399 0.99063 2.493-1.0185-0.17883-1.9455-0.14258-2.8629-0.11474-0.24052 0.17139-0.45607 0.32549-0.53024 0.6361-0.1001 0.41886-0.2518 0.82597-0.3843 1.2369-0.31253 0.96879-0.55112 1.9726-1.2792 2.7215 0 0.73787-0.09986 1.4719 0.0204 2.168 0.26188 1.5156 0.71051 2.9923 0.95222 4.5201 0.17355 1.0953 0.34733 2.1942 0.46207 3.2931 0.08665 0.83053 0.20499 1.6618 0.27556 2.4961 0.05449 0.6457 0.04249 1.3113 0.17547 1.9397 0.21387 1.0101 0.19707 2.0362 0.27916 3.0485 0.11066 1.36 0.32621 2.7211 0.25564 4.095-5e-3 0.09314-0.0067 0.19059 0.01464 0.28036 0.27076 1.1553 0.18195 2.3437 0.30941 3.5141 0.11018 1.0134 0.21363 2.037 0.28036 3.0595 0.03769 0.57513 0.1013 1.1685 0.18267 1.7501 0.11954 0.85693 0.22636 1.7158 0.31901 2.5758 0.09001 0.83269 0.08377 1.6836 0.25636 2.4971 0.11762 0.55497 0.09073 1.1099 0.19275 1.6584 0.12962 0.6973 0.22203 1.4016 0.31517 2.1049 0.08545 0.64426 0.13514 1.2936 0.229 1.9368 0.15962 1.0972 0.37926 2.1877 0.50312 3.2888 0.12098 1.0768 0.33821 2.1373 0.44839 3.2182 0.14666 1.4392 0.45511 2.8617 0.68602 4.2928 0.03024 0.18747 0.0324 0.37494 0.26596 0.5504 0.85165 0.21556 1.7703 0.47839 2.7028 0.67619 0.93422 0.19851 1.8428 0.52592 2.7602 0.5528 0.20475 0.1337 0.34781 0.25156 0.45607 0.49039-0.02136 1.0583 0.13034 2.1584 0.35717 3.2523 0.10226 0.49472 0.51296 1.4198 0.87949 1.7926 0.12698 0.12891 0.28852 0.2494 0.45703 0.3063 0.58233 0.19754 1.1565 0.40445 1.7705 0.52448 0.69587 0.13657 1.3444-0.048 1.9964-0.0633 1.4297-0.97503 2.0199-1.9251 2.2059-3.5823 0.04177-0.37229 0.12194-0.7237 0.29981-1.072 0.59697 0.0303 1.1788-0.0514 1.7664 0.1241 0.31613 0.0948 0.70091 0.0924 1.0218 9e-3 0.61617-0.16178 1.2364-0.0917 1.8526-0.14545 0.67882-0.0593 1.3632-0.10154 2.0314-0.22372 1.6075-0.2938 3.203-0.64618 4.813-0.93422 2.2299-0.39942 4.4652-0.70115 6.7311-0.72035 1.4678-0.0122 2.9464-0.0852 4.4016 0.0574 1.6294 0.15938 3.264 0.28108 4.8927 0.47022 1.32 0.15292 2.6481 0.24508 4.0691 0.47456-0.03097 1.089 0.02496 2.0994 0.3771 3.0828 0.26212 0.7326 0.66778 1.3504 1.3454 1.6985 1.2251 0.62866 2.5437 0.57705 3.8063 0.17547 0.94406-0.30052 1.6106-0.93614 1.855-2.018 0.16466-0.72923-8e-3 -1.4688 0.30005-2.2179 1.3833-0.0672 2.842 0.043 4.2849-0.0276 0.07777-0.49496 0.17595-0.89006 0.19611-1.2892 0.07177-1.4285 0.10826-2.8593 0.16394-4.2873 0.11234-2.8948 0.08809-5.7959 0.24196-8.6917 0.02808-0.52976-0.05905-1.0797 0.05065-1.589 0.24388-1.1337 0.10106-2.2849 0.26068-3.4277 0.17931-1.2811 0.25084-2.5842 0.3783-3.8771 0.05761-0.58713 0.21675-1.1562 0.2278-1.7496 0.02184-1.1488 0.32909-2.2616 0.48031-3.3946 0.17907-1.3444 0.42366-2.6802 0.65266-4.0177 0.18267-1.0641 0.35741-2.1313 0.59553-3.1836 0.06961-0.30725 0.09914-0.60969 0.13154-0.91526 0.03313-0.30989 0.01177-0.62722 0.06481-0.93278 0.22179-1.2746 0.48127-2.5427 0.69035-3.8185 0.27388-1.6764 0.5132-3.3581 0.76644-5.0374 0.06433-0.42702 0.12434-0.85501 0.18531-1.282 0.1565-1.0989 0.33197-2.1954 0.46327-3.2971 0.12794-1.0737 0.3723-2.1387 0.28804-3.2921-0.61449-0.52304-1.2098-1.1265-1.6308-1.854-0.75107-1.2993-1.886-2.1997-2.9961-3.0775-4.9868 0-9.9222 0-14.858-0.0014-0.06121 0-0.12314-0.01656-0.18339-0.03024-0.02832-7e-3 -0.05665-0.02233-0.08041-0.04009-0.02449-0.01873-0.04321-0.04489-0.1121-0.11906 5e-3 -1.4705-0.07969-2.9889-0.18195-4.5086-0.06913-1.0221-0.20691-2.0382-0.26332-3.0629-0.0324-0.57897-0.05233-1.1822-0.17307-1.7535-0.22395-1.0586-0.27196-2.1385-0.4916-3.1994-0.26788-1.2962-0.38382-2.6214-0.72275-3.9095-0.1421-0.54032-0.14378-1.1118 0.15746-1.6332 0.50072-0.86797 0.6385-1.8029 0.50168-2.7979-0.15842-0.21099-0.27556-0.48824-0.65482-0.50528-0.32789 0.07513-0.51848 0.36366-0.71987 0.61905-0.1325 0.64594-0.1325 0.64594-0.5036 1.1723-0.1613-6e-3 -0.1445-0.16851-0.21747-0.2518-0.10586-0.12074-0.16251-0.26428-0.13154-0.50672 1.7319-3.0602 3.5715-6.1329 5.9059-8.9301 0.2614 0.43975 0.494 0.82933 0.72731 1.2211-0.28228 0.63178-0.79524 1.0624-1.1428 1.6046-1.3785 2.1495-2.1205 4.5209-2.2525 7.0595-0.08113 1.5578-0.02304 3.1231-0.0144 4.685 0.0036 0.64954 0.02569 1.2914 0.16034 1.9419 0.27964 1.3447 0.92966 2.4765 1.7758 3.5225 0.12842 0.15842 0.27748 0.24892 0.51368 0.18003 0.23332-0.13778 0.27988-0.55904 0.71603-0.52784 0.22251 0.04921 0.35813 0.27364 0.54008 0.43831 0.87877 0.79692 1.5379 1.7988 2.4224 2.5924 0.41814 0.3747 0.84877 0.70955 1.3348 1.0012 0.63226 0.37902 1.3058 0.65578 1.9856 0.98799 0.54632-0.03216 1.0934 0.05089 1.5847 0.36654h3.4049c0.55736-0.3843 1.2165-0.37542 1.8653-0.3867 0.04849-0.04608 0.10706-0.07945 0.13298-0.1301 0.16322-0.32141 0.5036-0.16322 0.74747-0.2806 2.0624-0.99471 4.0799-2.0499 5.6694-3.7599 0.64379-0.69227 1.2943-1.3754 1.7698-2.2021 0.79525-1.3833 1.4116-2.8483 1.5509-4.4402 0.23619-2.685-0.10825-5.3031-1.1663-7.8091"
     fill="#fff"
     fill-rule="nonzero"
     stroke-width=".24004"
     id="path1"
     style="fill:#df6d1b;fill-opacity:1" />
</svg>
