<?xml version="1.0" encoding="UTF-8" standalone="no"?>
<svg
   version="1.1"
   width="2748px"
   height="2732px"
   style="shape-rendering:geometricPrecision; text-rendering:geometricPrecision; image-rendering:optimizeQuality; fill-rule:evenodd; clip-rule:evenodd"
   id="svg12"
   sodipodi:docname="logo.svg"
   inkscape:version="1.3.2 (091e20ef0f, 2023-11-25)"
   xmlns:inkscape="http://www.inkscape.org/namespaces/inkscape"
   xmlns:sodipodi="http://sodipodi.sourceforge.net/DTD/sodipodi-0.dtd"
   xmlns="http://www.w3.org/2000/svg"
   xmlns:svg="http://www.w3.org/2000/svg">
  <defs
     id="defs12" />
  <sodipodi:namedview
     id="namedview12"
     pagecolor="#ffffff"
     bordercolor="#000000"
     borderopacity="0.25"
     inkscape:showpageshadow="2"
     inkscape:pageopacity="0.0"
     inkscape:pagecheckerboard="0"
     inkscape:deskcolor="#d1d1d1"
     inkscape:zoom="3.5117221"
     inkscape:cx="1772.4922"
     inkscape:cy="2097.2616"
     inkscape:window-width="1864"
     inkscape:window-height="1052"
     inkscape:window-x="1920"
     inkscape:window-y="0"
     inkscape:window-maximized="1"
     inkscape:current-layer="svg12" />
  <g
     id="g2">
    <path
       style="opacity:1"
       fill="#000000"
       d="M 1373.5,50.5 C 1531.06,48.7039 1684.06,74.0372 1832.5,126.5C 1833.29,126.069 1834.13,125.735 1835,125.5C 1854.02,130.616 1872.52,137.116 1890.5,145C 1909.92,157.375 1930.58,167.708 1952.5,176C 2225.78,309.278 2429.95,512.112 2565,784.5C 2677.58,1023.12 2714.91,1273.12 2677,1534.5C 2651.24,1703.12 2594.24,1860.12 2506,2005.5C 2346.19,2260.89 2125.02,2441.73 1842.5,2548C 1586.49,2638.69 1326.82,2650.69 1063.5,2584C 772.961,2504.57 536.461,2346.07 354,2108.5C 171.476,1861.58 85.8093,1583.91 97,1275.5C 105.154,1122.24 138.487,974.906 197,833.5C 206.625,817.249 214.958,800.249 222,782.5C 356.696,511.804 559.863,309.971 831.5,177C 1003.24,96.3974 1183.91,54.2308 1373.5,50.5 Z"
       id="path2" />
  </g>
  <g
     id="g3">
    <path
       style="opacity:1"
       fill="#020202"
       d="M 65.5,158.5 C 66.6291,160.628 66.7958,162.961 66,165.5C 64.3364,163.214 64.1697,160.881 65.5,158.5 Z"
       id="path3" />
  </g>
  <g
     id="g4">
    <path
       style="opacity:1"
       fill="#fefefe"
       d="m 1387.5,210.5 c 160.12,-1.076 313.78,30.091 461,93.5 23.19,9.927 45.85,20.927 68,33 -76.26,137.855 -152.26,275.855 -228,414 0.56,2.188 1.89,2.854 4,2 1.91,-1.87 4.07,-3.37 6.5,-4.5 73.73,-135.806 148.73,-270.806 225,-405 0.69,-0.857 1.52,-1.523 2.5,-2 107.14,56.611 202.8,128.777 287,216.5 -148.8,137.132 -297.3,274.632 -445.5,412.5 -3.04,8.957 0.12,12.124 9.5,9.5 96.76,-90.764 194.09,-180.764 292,-270 47.33,-44 94.67,-88 142,-132 3.6,-3.446 7.6,-6.279 12,-8.5 79.94,84.305 144.94,179.139 195,284.5 -0.14,0.772 -0.48,1.439 -1,2 -22.46,10.728 -44.79,21.728 -67,33 -60.73,28.53 -121.39,57.363 -182,86.5 3.04,3.853 6.71,4.686 11,2.5 80.91,-37.705 161.74,-75.538 242.5,-113.5 6.77,11.873 12.77,24.206 18,37 60.25,145.16 89.42,296.49 87.5,454 -105.15,-3.26 -210.82,-6.92 -317,-11 -3.09,0.01 -6.09,0.51 -9,1.5 0.67,1.33 1.67,2.33 3,3 106.38,4.82 213.04,9.48 320,14 2.15,0.48 3.15,1.81 3,4 -5.35,170.78 -46.68,332.12 -124,484 -1.67,0.67 -3.33,0.67 -5,0 -111.67,-57.17 -223.33,-114.33 -335,-171.5 -1.78,0.85 -2.28,2.18 -1.5,4 112.07,58.95 223.9,118.28 335.5,178 -66.18,124.73 -152.85,233.57 -260,326.5 -1.84,-0.63 -3.67,-0.47 -5.5,0.5 -97.02,-121.03 -193.35,-242.7 -289,-365 -2.67,-2.21 -5.5,-2.21 -8.5,0 63.69,81.19 127.19,162.52 190.5,244 8.55,10.46 17.55,20.46 27,30 22.28,32.23 45.78,63.56 70.5,94 2.42,0.91 4.42,2.41 6,4.5 -100.32,84.53 -212.32,150.2 -336,197 -1.33,0.67 -2.67,0.67 -4,0 -28.3,-70.2 -56.3808,-139.3654 -84.7508,-209.8254 4.34,-0.84 7.4208,-4.3446 9.7508,-8.1746 10.87,-4.18 21.53,-8.84 32,-14 4.83,-4.17 9.67,-8.33 14.5,-12.5 -4.173,12.8875 -2.2951,32.8772 -10.5,44.5 1.93,3.6 4.26,6.93 7,10 6.5798,3.4482 22.7101,-0.5047 32,-6 4.578,-3.9992 8.2233,-20.2336 10.5102,-23.7986 0.7407,-9.225 4.1954,-53.6776 10.9898,-62.7014 0.05,-7.98 0.72,-15.98 2,-24 2.09,-7.19 4.26,-14.36 6.5,-21.5 -2.28,-5.3 -4.78,-10.47 -7.5,-15.5 -1.33,-4.67 -2.67,-9.33 -4,-14 -1,-0.67 -2,-1.33 -3,-2 -3.5907,-9.7847 -25.055,-190.475 -23,-214 0.9,-1.2 2.07,-2.03 3.5,-2.5 15.88,-3.89 31.55,-7.56 47,-11 6.41,-1.8 12.74,-3.8 19,-6 100.4438,-40.7553 230.4428,-145.3627 249.5,-179.5 26.4377,-37.0346 64.3726,-114.8151 78,-165 18.4177,-108.7284 27.7462,-207.3659 19,-320 -10.5335,-56.3304 -35.0429,-114.0824 -64,-164 -7.2,-7.992 -16.03,-11.492 -26.5,-10.5 l -99.5,220.5 c -21.3076,43.4339 -39.7809,108.0698 -84.5,139.5 -14.8697,15.1139 -32.4496,10.2922 -67,-7 -47.2437,-21.318 -65.8988,-65.7641 -82.5,-108.5 -6.07,-23.81 -11.4,-47.81 -16,-72 -10.362,-125.3525 3.814,-278.00046 -97.5,-373 -0.1277,-5.20236 42.2211,-38.85793 28,-84 -1.7084,-73.6104 -37.7885,-106.10778 -113,-81 -0.4148,-51.80935 -57.5506,-80.70091 -122,-3.5 -5.3272,1.89444 -13.1964,-18.67117 -27,-18 -19.21,-0.462 -34.04,7.371 -44.5,23.5 -15.955,29.89843 -6.615,46.28164 -1,74 0.67,2.333 0.67,4.667 0,7 l -15,15 c -7.89,13.792 -13.56,28.459 -17,44 -0.9,10.077 -2.23,20.077 -4,30 -6.22,2.633 -12.39,5.467 -18.5,8.5 -25.58,18.662 -45.41,42.829 -59.5,72.5 -16.2269,44.45493 -18.4258,56.7502 -11.5,103.5 45.2878,-8.17171 62.7579,-64.1388 127,-101 3.2,-1.483 6.54,-1.817 10,-1 18.2,7.847 34.03,19.013 47.5,33.5 10.85,15.728 17.69,33.062 20.5,52 -2.91,14.217 -8.07,27.55 -15.5,40 -4.59,3.044 -9.09,6.21 -13.5,9.5 -7.15,3.077 -14.15,6.41 -21,10 -11.5,2.391 -22.84,5.39 -34,9 -11.89,0.82 -23.73,1.32 -35.5,1.5 -21.33,-3.3 -42.83,-4.8 -64.5,-4.5 -10.63,-5.641 -21.96,-8.975 -34,-10 -9.08,-4.376 -18.08,-9.043 -27,-14 -15.17,-4.352 -30.17,-9.019 -45,-14 -7.39,-0.393 -14.72,-1.227 -22,-2.5 -19.67,1.126 -39.33,-0.041 -59,-3.5 -25.13,-6.745 -50.13,-13.745 -75,-21 -10.03,-1.393 -20.026,-2.893 -30,-4.5 -8.69721,1.75726 -52.93977,-1.46044 -55.23526,8.30542 50.612,132.06998 98.29106,269.07258 148.68106,401.33258 9.35,13.36 27.0293,20.6383 41.3393,28.2783 10.33,3.67 22.8849,4.9137 33.2149,8.5837 21.56,13.23 44.89,21.56 70,25 10.95,8.94 23.29,15.27 37,19 7.05,0.2 14.05,0.7 21,1.5 3.13,17.13 6.96,34.13 11.5,51 10.58,32.09 22.92,63.42 37,94 2.84,3.67 5.17,7.67 7,12 l 4,4 c 18.68,40.03 43.68,75.7 75,107 7.62,10.62 15.62,20.95 24,31 9.8,10.29 19.14,20.96 28,32 4.68,4.68 9.68,9.01 15,13 20.95,28.24 49.11,44.24 84.5,48 4.404,109.7304 10.8537,183.3165 8,257 -36.1829,8.5503 -104.8755,33.255 -133.5,44 -2.78,5.59 -1.61,10.09 3.5,13.5 9.98,1.02 19.98,1.85 30,2.5 11.66,-1.22 23.33,-2.39 35,-3.5 11.15,-1.47 22.15,-3.47 33,-6 8.57,-3.59 16.91,-7.59 25,-12 2.03,-0.68 4.03,-1.01 6,-1 l 1,1 c -17.8969,18.0144 -33.2185,45.1969 -41.5,62.5 -0.67,1.67 -0.67,3.33 0,5 3.3,5.82 8.14,9.48 14.5,11 2.2,-0.35 5.2381,-0.9473 6.7081,-2.5973 2.3864,3.1487 37.3816,-43.8997 40.7919,-51.4027 2.8429,-8.5885 9.8156,-14.0002 15,-21 3.38,-9.58 6.88,-19.08 10.5,-28.5 -2.16,-7.75 -6.8817,-15.91 -7.7217,-24.5 -3.9525,-79.9077 -7.272,-159.15 -12.0068,-239.0203 50.3212,2.2183 97.1606,2.8549 147.7285,-0.9797 14.2749,90.6309 9.9016,123.6798 22,182.5 -1.49,19.14 -2.66,38.31 -3.5,57.5 -1.14,13.69 -3.8,27.02 -8,40 -7.4,7.28 -14.9,14.45 -22.5,21.5 -10.67,8.67 -21.33,17.33 -32,26 -1.67,2.33 -3.33,4.67 -5,7 l -4,2 c -25.48,-56.46 -50.31,-113.3 -74.5,-170.5 -0.75,-1.83 -1.75,-3.5 -3,-5 -0.47,1.43 -1.3,2.6 -2.5,3.5 0.92,0.37 1.75,0.87 2.5,1.5 24.33,58.48 48.5,116.98 72.5,175.5 -7.48,5.51 -10.32,13.01 -8.5,22.5 4.79,2.73 10.6087,1.3711 15.8187,-0.029 27.3127,66.8885 55.1171,137.3721 82.1813,205.0289 0.99,1.95 1.32,3.95 1,6 -104.18,37.9 -212.02,59.74 -323.5,65.5 -15.51,0.3 -31.01,0.8 -46.5,1.5 -3.99,-0.21 -7.82,-1.04 -11.5,-2.5 -4.82,-211.76 -9.15,-423.59 -13,-635.5 0.21,-7.67 0.55,-15.34 1,-23 -1.81,-42.98 -2.98,-85.98 -3.5,-129 -0.76,-2.13 -2.26,-3.47 -4.5,-4 -0.54,13.51 -0.87,27.01 -1,40.5 1.88,23.55 2.21,47.22 1,71 2.29,227.5 4.29,455 6,682.5 -92.39,-1.59 -189.028,-15.2008 -278.638,-37.6108 -0.3352,-1.3148 10.2671,-42.815 9.6244,-44 0,0 2.4277,0.027 19.1109,5.4298 14.5461,-47.8934 14.8398,-47.97 15.4027,-49.819 l -72.7919,-20.6244 c -1.7116,2.5789 -16.1108,50.8597 -16.1108,50.8597 1.8834,0.6644 17.0135,6.2511 17.0135,6.2511 -2.0532,3.5448 -9.7241,39.3333 -9.6108,40.5136 -74.439,-21.82 -145.772,-51.49 -214,-89 142.975,-275.95 286.47,-551.62 430.5,-827 0.83,-3.17 -0.33,-4.33 -3.5,-3.5 -142.45,267.07 -285.285,533.91 -428.5,800.5 -2.889,5.11 -5.222,10.44 -7,16 -2.05,2.39 -4.384,4.39 -7,6 -104.841,-60.78 -198.674,-135.94 -281.5,-225.5 5.968,-6.97 12.301,-13.64 19,-20 142.667,-131 285.333,-262 428,-393 -2.58,-1.25 -5.243,-1.58 -8,-1 -86.052,78.06 -172.052,156.06 -258,234 -13.418,14.75 -28.085,28.09 -44,40 -17.419,18.09 -35.419,35.42 -54,52 -30.532,24.86 -60.199,50.86 -89,78 -1,0.67 -2,0.67 -3,0 -73.436,-84.29 -133.769,-177.46 -181,-279.5 l 531,-250.5 c -0.813,-1.88 -2.147,-2.55 -4,-2 -177.615,78.97 -354.948,158.8 -532,239.5 -48.9,-108.93 -79.067,-222.93 -90.5,-342 -4.84,-54.24 -6.34,-108.57 -4.5,-163 67.144,2.38 134.311,4.38 201.5,6 5.825,-0.47 11.659,-0.8 17.5,-1 96.022,2.32 192.022,4.82 288,7.5 2.346,-1.68 4.346,-3.68 6,-6 -0.145,-0.77 -0.478,-1.44 -1,-2 -154.666,-5.66 -309.332,-10.32 -464,-14 -10.389,-0.2 -20.722,-1.04 -31,-2.5 -5.3,0.84 -10.634,1.18 -16,1 8.565,-154.17 47.398,-300.173 116.5,-438 118.266,60.883 236.766,121.383 355.5,181.5 2.557,1.12 5.057,1.29 7.5,0.5 0.684,-1.28 0.517,-2.45 -0.5,-3.5 C 627.676,952.255 508.01,890.255 388.5,828 443.202,720.619 513.369,624.452 599,539.5 c 66.155,56.341 131.655,113.508 196.5,171.5 3.181,2.092 6.181,4.425 9,7 3.167,0.833 4.333,-0.333 3.5,-3.5 -21.853,-21.845 -45.02,-42.345 -69.5,-61.5 -2,-2.667 -4,-5.333 -6,-8 -32.812,-29.568 -65.812,-58.901 -99,-88 -8.68,-8.547 -17.014,-17.38 -25,-26.5 104.371,-101.487 224.204,-180.154 359.5,-236 88.02,229.738 175.86,459.572 263.5,689.5 2.11,0.854 3.44,0.188 4,-2 -8.77,-30.706 -19.93,-60.539 -33.5,-89.5 C 1126.91,692.174 1051.74,492.008 976.5,292 c 127.79,-51.991 260.79,-78.824 399,-80.5 2.2,85.978 4.03,171.978 5.5,258 0.23,4.055 0.73,8.055 1.5,12 -1.18,31.164 -1.18,62.498 0,94 2.31,-0.493 4.64,-0.826 7,-1 -0.69,-121.357 -1.36,-242.69 -2,-364 z"
       id="path4"
       sodipodi:nodetypes="ccccccccccccccccccccccccccccccccccccccccccccccccccccccccccccccccccccccccccccccccccccccccccccccccccccccccccccccccccccccccccccccccccccccccccccccccccccccccccccccccccccccccccccccccccccccccccccccccccccccccccccccccccccccccccccccc" />
  </g>
  <g
     id="g5">
    <path
       style="opacity:1"
       fill="#000000"
       d="m 792.5,655.5 c 51.908,0.708 94.075,21.041 126.5,61 30.321,44.748 32.321,90.748 6,138 -6.752,10.086 -14.252,19.586 -22.5,28.5 61.5,167.17 123,334.33 184.5,501.5 0.52,1.72 1.52,3.06 3,4 54.69,25.67 85.02,68.67 91,129 2.62,51.56 -15.21,94.39 -53.5,128.5 -49.76,37.37 -102.1,41.37 -157,12 -49.284,-33.06 -72.784,-79.56 -70.5,-139.5 1.134,-12.8 3.134,-25.47 6,-38 5.481,-12.12 11.148,-24.12 17,-36 3.956,-4.73 7.789,-9.56 11.5,-14.5 0,0 -29.79639,-66.9232 -22.54757,-68.534 28.97026,1.3355 38.71897,-2.2573 57.69996,-5.8831 20.51262,-6.606 30.60431,-17.059 37.09201,-38.049 0.81,-4.86 0.7441,-16.9802 -1.3959,-21.4502 -2.7877,-18.8465 -37.60305,-28.4214 -33.04986,-37.6607 20.19863,-6.142 23.03538,-22.1606 28.29866,-40.104 -7.40101,-20.65 -17.8323,-41.969 -32.0973,-58.319 -8.268,-6.09 -17.435,-10.26 -27.5,-12.5 -8.90883,-3.3343 -14.63618,-11.7891 -7,-27 1.56728,-15.4348 -2.954,-29.15 -11,-42 -6.818,-10.48 -15.318,-19.32 -25.5,-26.5 -24.39227,-18.2906 -41.76386,-17.7761 -72.5,-21.5 -12.599,-34.962 -25.099,-69.962 -37.5,-105 -44.84,-2.513 -83.007,-19.513 -114.5,-51 -39.608,-47.607 -43.942,-98.273 -13,-152 10.333,-15.667 23.333,-28.667 39,-39 l 41.43049,116.84222 10.95208,6.07911 79.7765,-28.21277 L 834,767.5 c -0.45649,-1.08041 -41.5,-112 -41.5,-112 z"
       id="path5"
       sodipodi:nodetypes="cccccccccccccccccccccccccccccccccc" />
  </g>
  <g
     id="g6">
    <path
       style="opacity:1"
       fill="#010101"
       d="M 940.5,873.5 C 943.487,873.998 946.487,874.498 949.5,875C 964.529,889.695 979.196,904.695 993.5,920C 991.167,920.667 988.833,920.667 986.5,920C 971.386,905.555 956.22,891.055 941,876.5C 940.517,875.552 940.351,874.552 940.5,873.5 Z"
       id="path6" />
  </g>
  <g
     id="g7">
    <path
       style="opacity:1"
       fill="#000000"
       d="M 1380.5,895.5 C 1382.34,925.333 1383.51,955.333 1384,985.5C 1380.68,982.866 1378.35,979.533 1377,975.5C 1376.24,949.808 1375.57,924.141 1375,898.5C 1376,897.167 1377,897.167 1378,898.5C 1379.04,897.627 1379.88,896.627 1380.5,895.5 Z"
       id="path7" />
  </g>
  <g
     id="g8">
    <path
       style="opacity:1"
       fill="#000000"
       d="m 797.5,985.5 c 2.763,0.244 4.929,1.577 6.5,4 3.618,9.186 6.618,18.52 9,28 2.678,5.85 5.178,11.68 7.5,17.5 28.69346,3.6538 54.81995,3.6818 77.6132,23.1834 14.48527,8.3103 32.5802,42.6134 30.12205,61.0271 -9.28402,15.5495 -1.75413,28.4639 10.06939,32.1396 12.48407,4.8326 17.63875,6.6092 24.48486,11.8445 11.98545,12.5683 25.23573,38.9871 30.88916,53.8756 -4.77558,47.2188 -23.57203,27.6776 -28.48645,42.6877 4.44075,10.2842 11.75417,14.7843 19.30779,18.7421 14.41833,12.2857 22.514,24.1047 16,43.5 -23.8278,47.8461 -96.88765,32.2407 -98,32 -83.1013,-14.1782 -129.3918,-67.4329 -125.5,-119.5 -20.50983,-24.6165 -52.41746,-71.6954 -23.5,-92.5 -14.47248,-30.6865 -27.57816,-51.9392 -14.5,-87.5 10.10299,-30.4101 33.94322,-49.3314 58.5,-69 z"
       id="path8"
       sodipodi:nodetypes="ccccccccccccccccc" />
  </g>
  <g
     id="g9">
    <path
       style="opacity:1"
       fill="#010101"
       d="M 2027.5,1033.5 C 2028.5,1033.47 2029.16,1033.97 2029.5,1035C 2031.08,1039.86 2030.75,1044.52 2028.5,1049C 1949.62,1085.61 1870.62,1121.94 1791.5,1158C 1789.53,1158.5 1787.53,1158.66 1785.5,1158.5C 1786.41,1153.51 1788.75,1149.34 1792.5,1146C 1818.6,1133.58 1844.27,1121.25 1869.5,1109C 1922.48,1084.29 1975.15,1059.13 2027.5,1033.5 Z"
       id="path9" />
  </g>
  <g
     id="g10">
    <path
       style="opacity:1"
       fill="#010101"
       d="M 1206.5,1406.5 C 1208.84,1406.77 1208.84,1407.61 1206.5,1409C 1190.5,1419.34 1174.17,1429.17 1157.5,1438.5C 1156.17,1436.83 1156.17,1435.17 1157.5,1433.5C 1174.09,1424.71 1190.42,1415.71 1206.5,1406.5 Z"
       id="path10" />
  </g>
  <g
     id="g11">
    <path
       style="opacity:1"
       fill="#fefefe"
       d="m 1060.723,1449.0103 67.4039,54.81 -16.3478,85.3495 -89.5856,36.528 -66.709,-62.8648 15.74991,-86.4727 z"
       id="path11"
       sodipodi:nodetypes="ccccccc" />
  </g>
  <g
     id="g12">
    <path
       style="opacity:1"
       fill="#010101"
       d="M 1266.5,1444.5 C 1267.22,1447.13 1266.55,1449.63 1264.5,1452C 1255.76,1460.75 1246.42,1468.75 1236.5,1476C 1219.99,1493.17 1202.83,1509.67 1185,1525.5C 1184.22,1522.24 1184.38,1519.07 1185.5,1516C 1212.69,1492.3 1239.69,1468.47 1266.5,1444.5 Z"
       id="path12" />
  </g>
</svg>
